<?xml version="1.0" encoding="utf-8"?>
<!-- Generator: Adobe Illustrator 16.0.0, SVG Export Plug-In . SVG Version: 6.00 Build 0)  -->
<!DOCTYPE svg PUBLIC "-//W3C//DTD SVG 1.1//EN" "http://www.w3.org/Graphics/SVG/1.1/DTD/svg11.dtd">
<svg version="1.1" xmlns="http://www.w3.org/2000/svg" xmlns:xlink="http://www.w3.org/1999/xlink" x="0px" y="0px"
	 width="342.334px" height="303.334px" viewBox="0 0 342.334 303.334" style="enable-background:new 0 0 342.334 303.334;"
	 xml:space="preserve">
<style type="text/css">
<![CDATA[
	.st0{fill-rule:evenodd;clip-rule:evenodd;fill:#AF2EAC;}
	.st1{fill:none;stroke:#FFFFFF;stroke-width:9;}
	.st2{fill:#22FF10;}
	.st3{fill:url(#SVGID_3_);}
	.st4{fill:url(#SVGID_4_);}
	.st5{fill:url(#SVGID_5_);}
	.st6{fill:url(#SVGID_6_);}
	.st7{fill:url(#SVGID_7_);}
	.st8{fill:url(#SVGID_8_);}
	.st9{fill:url(#SVGID_9_);}
	.st10{fill:none;stroke:#000000;stroke-width:15;}
	.st11{opacity:0.5;}
	.st12{display:inline;}
	.st13{fill:url(#SVGID_2_);stroke:#FFFFFF;stroke-width:9;}
	.st14{fill-rule:evenodd;clip-rule:evenodd;fill:none;stroke:#FFFFFF;stroke-width:4;stroke-miterlimit:10;}
	.st15{fill-rule:evenodd;clip-rule:evenodd;fill:#FF3E68;}
	.st16{fill-rule:evenodd;clip-rule:evenodd;fill:#FF80E4;}
	.st17{fill:none;stroke:#009245;stroke-width:5;}
	.st18{fill:url(#SVGID_10_);}
	.st19{fill:url(#SVGID_11_);}
	.st20{fill:url(#SVGID_12_);}
	.st21{fill:url(#SVGID_13_);}
	.st22{fill:url(#SVGID_14_);}
	.st23{fill:url(#SVGID_15_);}
	.st24{fill:url(#SVGID_16_);}
	.st25{fill:url(#SVGID_17_);}
	.st26{fill:url(#SVGID_18_);}
	.st27{fill:url(#SVGID_19_);}
	.st28{fill:url(#SVGID_20_);}
	.st29{fill:url(#SVGID_21_);}
	.st30{fill:url(#SVGID_22_);}
	.st31{fill:url(#SVGID_23_);}
	.st32{fill:url(#SVGID_24_);}
	.st33{fill:url(#SVGID_25_);}
	.st34{fill:url(#SVGID_26_);}
	.st35{fill:url(#SVGID_27_);}
	.st36{fill:url(#SVGID_28_);}
	.st37{fill:url(#SVGID_29_);}
	.st38{fill:url(#SVGID_30_);}
	.st39{fill:url(#SVGID_31_);}
	.st40{fill:url(#SVGID_32_);}
	.st41{fill:url(#SVGID_33_);}
	.st42{fill:url(#SVGID_34_);}
	.st43{display:none;}
	.st44{opacity:0.3;fill:url(#SVGID_1_);}
	.st45{fill:none;stroke:#F7931E;stroke-width:5;}
]]>
</style>
<g id="Layer_1">
</g>
<g id="Layer_2">
</g>
<g id="Layer_2_copy" class="st43">
</g>
<g id="Layer_4">
	<g id="Layer_5">
	</g>
	<g>
		<g>
			<g>
				<path class="st14" d="M102.229,139.159c0-19.433,0-38.865,0-58.489c21.483,0,42.621,0,64.183,0c0,19.473,0,38.981,0,58.489
					C145.017,139.159,123.623,139.159,102.229,139.159z M125.643,99.654c0,6.957,0,13.609,0,20.301c5.864,0,11.503,0,17.253,0
					c0-6.834,0-13.488,0-20.301C137.103,99.654,131.463,99.654,125.643,99.654z"/>
				<path class="st14" d="M62.496,139.159c0-7.612,0-15.226,0-23.225c3.547,0,6.638,0,10.026,0c0-31.504,0-62.619,0-93.936
					c11.245,0,22.182,0,33.367,0c0,7.561,0,15.13,0,23.109c-3.129,0-6.324,0-9.662,0c-0.118,1.166-0.265,1.943-0.265,2.723
					c-0.012,29.837-0.011,59.673-0.002,89.51c0,0.606,0.102,1.212,0.155,1.818C84.909,139.159,73.703,139.159,62.496,139.159z"/>
				<path class="st14" d="M183.526,139.159c0-15.339,0-30.679,0-46.499c7.87,0,15.562,0,23.256,0
					c-0.01,15.5-0.019,30.999-0.027,46.499C199.013,139.159,191.269,139.159,183.526,139.159z"/>
				<path class="st14" d="M229.983,139.159c-0.014-15.499-0.025-30.999-0.039-46.498c7.61,0,15.221,0,23.267,0
					c0,15.687,0,31.093,0,46.498C245.468,139.159,237.726,139.159,229.983,139.159z"/>
				<path class="st14" d="M65.878,21.971c0,19.55,0,38.852,0,58.33c-21.283,0-42.413,0-63.756,0c0-19.4,0-38.778,0-58.33
					C23.31,21.971,44.446,21.971,65.878,21.971z M42.271,61.289c0-6.818,0-13.475,0-20.302c-5.792,0-11.432,0-17.126,0
					c0,6.863,0,13.598,0,20.302C30.966,61.289,36.532,61.289,42.271,61.289z"/>
				<path class="st14" d="M206.673,69.538c-7.604,0-15.208,0-23.014,0c0-16.051,0-31.671,0-47.516c7.516,0,15.093,0,22.877,0
					c0.082,0.436,0.281,0.998,0.281,1.561c0.018,14.65,0.019,29.301,0.004,43.95c0,0.703-0.168,1.404-0.255,2.104
					C206.569,69.635,206.673,69.538,206.673,69.538z"/>
				<path class="st14" d="M230.238,69.715c-0.098-1.005-0.279-2.01-0.28-3.014c-0.019-14.03-0.013-28.06-0.013-42.089
					c0-0.801,0-1.603,0-2.608c7.746,0,15.311,0,23.079,0c0,15.674,0,31.357,0,47.653c-7.695,0-15.275,0-22.86-0.005
					C230.158,69.646,230.238,69.715,230.238,69.715z"/>
				<path class="st14" d="M230.024,92.74c-7.771,0-15.541,0-23.312-0.002c-0.011-7.734-0.022-15.471-0.037-23.203
					c-0.003,0.003-0.106,0.1-0.109,0.102c7.886,0.025,15.774,0.049,23.668,0.074c0.004,0.004-0.076-0.064-0.07-0.059
					C230.121,77.352,230.072,85.047,230.024,92.74z"/>
			</g>
			<g>
				<g>
					<path class="st14" d="M189.347,279.667c0-19.433,0-38.865,0-58.489c21.483,0,42.621,0,64.183,0c0,19.473,0,38.981,0,58.489
						C232.135,279.667,210.741,279.667,189.347,279.667z M212.761,240.162c0,6.957,0,13.609,0,20.301c5.864,0,11.503,0,17.253,0
						c0-6.834,0-13.488,0-20.301C224.221,240.162,218.581,240.162,212.761,240.162z"/>
					<path class="st14" d="M149.614,279.667c0-7.612,0-15.226,0-23.225c3.547,0,6.638,0,10.026,0c0-31.504,0-62.619,0-93.936
						c11.245,0,22.182,0,33.367,0c0,7.561,0,15.13,0,23.109c-3.129,0-6.324,0-9.662,0c-0.118,1.166-0.265,1.943-0.265,2.723
						c-0.012,29.837-0.011,59.673-0.002,89.51c0,0.606,0.102,1.212,0.155,1.818C172.027,279.667,160.821,279.667,149.614,279.667z"
						/>
					<path class="st14" d="M270.645,279.667c0-15.339,0-30.679,0-46.499c7.87,0,15.562,0,23.256,0
						c-0.01,15.5-0.019,30.999-0.027,46.499C286.131,279.667,278.387,279.667,270.645,279.667z"/>
					<path class="st14" d="M317.102,279.667c-0.014-15.499-0.025-30.999-0.039-46.498c7.61,0,15.221,0,23.267,0
						c0,15.687,0,31.093,0,46.498C332.586,279.667,324.844,279.667,317.102,279.667z"/>
					<path class="st14" d="M152.996,162.479c0,19.55,0,38.852,0,58.33c-21.283,0-42.413,0-63.756,0c0-19.4,0-38.778,0-58.33
						C110.428,162.479,131.564,162.479,152.996,162.479z M129.389,201.797c0-6.818,0-13.475,0-20.302c-5.792,0-11.432,0-17.126,0
						c0,6.863,0,13.598,0,20.302C118.084,201.797,123.65,201.797,129.389,201.797z"/>
					<path class="st14" d="M293.791,210.046c-7.604,0-15.208,0-23.014,0c0-16.051,0-31.671,0-47.516c7.516,0,15.093,0,22.877,0
						c0.082,0.436,0.281,0.998,0.281,1.561c0.018,14.65,0.019,29.301,0.004,43.95c0,0.703-0.168,1.404-0.255,2.104
						C293.688,210.143,293.791,210.046,293.791,210.046z"/>
					<path class="st14" d="M317.356,210.223c-0.098-1.005-0.279-2.01-0.28-3.014c-0.019-14.03-0.013-28.06-0.013-42.089
						c0-0.801,0-1.603,0-2.608c7.746,0,15.311,0,23.079,0c0,15.674,0,31.357,0,47.653c-7.695,0-15.275,0-22.86-0.005
						C317.276,210.154,317.356,210.223,317.356,210.223z"/>
					<path class="st14" d="M317.143,233.248c-7.771,0-15.541,0-23.312-0.002c-0.011-7.734-0.022-15.471-0.037-23.203
						c-0.003,0.003-0.106,0.1-0.109,0.102c7.886,0.025,15.774,0.049,23.668,0.074c0.004,0.004-0.076-0.064-0.07-0.059
						C317.239,217.859,317.19,225.555,317.143,233.248z"/>
				</g>
			</g>
		</g>
	</g>
</g>
</svg>
