<?xml version="1.0" encoding="utf-8"?>
<!-- Generator: Adobe Illustrator 16.0.0, SVG Export Plug-In . SVG Version: 6.00 Build 0)  -->
<!DOCTYPE svg PUBLIC "-//W3C//DTD SVG 1.1//EN" "http://www.w3.org/Graphics/SVG/1.1/DTD/svg11.dtd">
<svg version="1.1" id="Layer_3" xmlns="http://www.w3.org/2000/svg" xmlns:xlink="http://www.w3.org/1999/xlink" x="0px" y="0px"
	 width="691px" height="908px" viewBox="0 0 691 908" style="enable-background:new 0 0 691 908;" xml:space="preserve">
<path d="M113.333,495.333l3-2.666c0,0,9-121,10.667-131.333S132.5,320,145.5,279.5s31.5-69,31.5-69s22.5-33.5,46-47
	s34.5-12.5,45.5-11.5s28.5,6,40,14.5s33.5,26.5,49.5,53s19.5,35,30,59s24,73,30,120s5,82.5,4.5,84.5s-8-2.5-27,2.5s-50,20-73,45
	S283,587,277,609.5s-8,54.5,1.5,80.5s33,44,41.5,50s15,5.5,15,5.5s12.5,13.5,28,16.5s31.5,5,55-2.5s37.5-16,63.5-36.5
	s44.5-51.5,48-72.5s5-26.5-1-57s-7.5-45-8-61.5s-2-55.5-8-113S490,307,477,276.5s-31-64.5-53-87s-44-33.5-59-38s-79-6.5-79-6.5
	s-29.5-1.5-42,3s-28.5,10.5-48.5,30.5s-31,46.5-37.5,58s-27,74-33,117.5S113.333,495.333,113.333,495.333z"/>
<path d="M111.333,497.334l2-2.001l-3.667,8.334c0,0-11.667,33.666-6,58.333s10.333,44.332,22,62.666s33.334,49,57.667,64
	s35.333,18,47.667,21s32.333,4,39.333,2s17.333-7,17.333-7l0.667,3.334c0,0-20.081,14.617-62,9.333
	c-19.833-2.5-21.667-7.667-21.667-7.667s-28.667,6.666-68-21.667s-41.333-57.667-45.333-80.333S98,568.667,98,563.667
	S92,527.335,111.333,497.334z"/>
</svg>
