<?xml version="1.0" standalone="no"?>
<!DOCTYPE svg PUBLIC "-//W3C//DTD SVG 1.1//EN" "http://www.w3.org/Graphics/SVG/1.1/DTD/svg11.dtd" >
<svg>
<metadata>
Created by FontForge 20110222 at Sat May 18 17:33:31 2013
 By Orthosie Webhosting
(c) Jakob Fischer at www.pizzadude.dk - DO NOT DISTRIBUTE WITHOUT AUTHOR'S PERMISSION!
</metadata>
<defs>
<font id="BubbleBoy2Regular" horiz-adv-x="660" >
  <font-face 
    font-family="BubbleBoy2Regular"
    font-weight="400"
    font-stretch="normal"
    units-per-em="1000"
    panose-1="0 0 0 0 0 0 0 0 0 0"
    ascent="800"
    descent="-200"
    x-height="839"
    cap-height="1080"
    bbox="-128 -239 1272 1320"
    underline-thickness="50"
    underline-position="-75"
    unicode-range="U+0020-2030"
  />
<missing-glyph horiz-adv-x="500" 
d="M63 0v750h375v-750h-375zM125 63h250v625h-250v-625z" />
    <glyph glyph-name=".notdef" horiz-adv-x="500" 
d="M63 0v750h375v-750h-375zM125 63h250v625h-250v-625z" />
    <glyph glyph-name=".null" horiz-adv-x="0" 
 />
    <glyph glyph-name="nonmarkingreturn" horiz-adv-x="500" 
 />
    <glyph glyph-name="space" unicode=" " horiz-adv-x="500" 
 />
    <glyph glyph-name="FL0021h" unicode="!" horiz-adv-x="299" 
d="M277 1020l-123 -720q-4 -25 8.5 -42.5t38.5 -17.5t46 17t27 43l183 720q5 22 -24 43q-25 17 -53 17q-30 0 -61 -17q-38 -21 -42 -43zM224 73q0 21 -13.5 34t-34.5 13q-29 0 -51.5 -22t-22.5 -51q0 -21 13.5 -34t34.5 -13q29 0 51.5 22t22.5 51z" />
    <glyph glyph-name="FL0022h" unicode="&#x22;" horiz-adv-x="630" 
d="M468 930l12 60q8 38 -11.5 64t-58.5 26t-70.5 -26t-39.5 -64q-8 -36 11.5 -62.5t56.5 -27.5q-14 -24 -67 -48l-21 -100q68 11 119 61q47 47 69 117zM738 930l12 60q8 38 -11.5 64t-58.5 26t-70.5 -26t-39.5 -64q-8 -36 11.5 -62.5t56.5 -27.5q-14 -24 -67 -48l-21 -100
q68 11 119 61q47 47 69 117z" />
    <glyph glyph-name="FL0023h" unicode="#" horiz-adv-x="809" 
d="M322 810q-29 0 -51.5 -22t-22.5 -51q0 -20 14 -33.5t35 -13.5h60l-64 -300h-60q-29 0 -51.5 -22t-22.5 -51q0 -21 13.5 -34t34.5 -13h60l-44 -210q-5 -25 8.5 -42.5t38.5 -17.5q26 0 47 17.5t26 42.5l44 210h150l-44 -210q-5 -25 8.5 -42.5t38.5 -17.5q26 0 47 17.5
t26 42.5l44 210h60q29 0 51.5 22t22.5 51q0 21 -13.5 34t-34.5 13h-60l64 300h60q29 0 51 22t22 51q0 21 -13.5 34t-34.5 13h-60l45 210q5 25 -8.5 42.5t-38.5 17.5q-26 0 -47 -17.5t-26 -42.5l-45 -210h-150l45 210q5 25 -8.5 42.5t-38.5 17.5q-26 0 -47 -17.5t-26 -42.5
l-45 -210h-60zM477 690h150l-64 -300h-150z" />
    <glyph glyph-name="FL0024h" unicode="$" 
d="M283 60q-5 -25 8.5 -42.5t38.5 -17.5q26 0 47 17.5t26 42.5l14 67q65 16 123 64q86 71 107 169q6 26 6 50q0 66 -42 119q-56 71 -153 71q-50 0 -78 35q-20 25 -20 59q0 64 56 110q44 36 93 36q41 0 69 -27.5t28 -68.5q0 -11 -3 -24q-5 -25 8.5 -42.5t38.5 -17.5
q26 0 47 17.5t26.5 43.5t5.5 50q0 64 -38 114.5t-99 66.5l15 68q5 25 -8.5 42.5t-38.5 17.5q-26 0 -47 -17.5t-26 -42.5l-14 -67q-67 -17 -124 -64q-85 -70 -106 -169q-6 -28 -6 -53q0 -66 40 -117q55 -70 155 -70q41 0 69 -28t28 -68q0 -62 -57 -109q-42 -35 -91 -35
q-48 0 -78 35q-19 27 -19 59q0 13 3 26q5 25 -9 42.5t-39 17.5q-26 0 -46.5 -17.5t-25.5 -42.5q-6 -29 -6 -55q0 -64 37.5 -113t98.5 -65z" />
    <glyph glyph-name="FL0025h" unicode="%" horiz-adv-x="899" 
d="M804 1044l-575 -954q-19 -31 -14 -50q10 -39 49 -39q36 0 62 35l574 954q19 32 15 50q-10 39 -51 39q-34 0 -60 -35zM277 863q0 -64 41.5 -103.5t104.5 -39.5q86 0 154 66.5t68 151.5q0 63 -41.5 102.5t-103.5 39.5q-56 0 -107.5 -30.5t-82.5 -79.5q-33 -52 -33 -107z
M484 143q0 -64 41.5 -103.5t104.5 -39.5q86 0 154 66.5t68 151.5q0 63 -41.5 102.5t-103.5 39.5q-56 0 -107.5 -30.5t-82.5 -79.5q-33 -52 -33 -107zM474 960q21 0 34.5 -13t13.5 -34q0 -29 -22 -51t-51 -22q-21 0 -35 13.5t-14 33.5q0 29 22.5 51t51.5 22zM681 240
q21 0 34.5 -13t13.5 -34q0 -29 -22 -51t-51 -22q-21 0 -35 13.5t-14 33.5q0 29 22.5 51t51.5 22z" />
    <glyph glyph-name="ampersand" unicode="&#x26;" horiz-adv-x="868" 
d="M948 769h-49l-17 -81q-19 14 -43 14q-39 0 -71 -28t-40 -67l-30 -140q-8 -38 12.5 -65t59.5 -27q40 0 73 26.5t41 65.5zM215 607q-5 -21 18 -21t27.5 20t21 35t35.5 15t30.5 -14.5t7.5 -34.5l-10 -46h-48q-44 0 -79 -35t-35 -79q0 -32 21.5 -52t53.5 -20q36 0 70.5 28
t42.5 64l30 140q4 19 0 37q-13 58 -74 58q-39 0 -71 -28t-41 -67zM612 607l-45 -210q-2 -8 3.5 -15t13.5 -7q24 0 29 22l45 210q4 19 0 37q-13 58 -75 58q-39 0 -71.5 -28.5t-40.5 -66.5l-45 -210q-5 -22 18 -22t28 22l45 210q4 18 21 32t35 14t30.5 -14t8.5 -32zM776 607
q4 18 19.5 32t33.5 14q19 0 29.5 -13.5t6.5 -32.5l-29 -137q-4 -19 -20.5 -32.5t-35.5 -13.5t-28 14t-5 32zM335 515l-10 -48q-4 -20 -23 -33q-15 -13 -35 -13q-31 0 -36 28q-6 29 20 50q15 16 36 16h48zM899 769h49q2 9 -3.5 18t-14.5 9q-26 0 -31 -27z" />
    <glyph glyph-name="FL0027h" unicode="'" horiz-adv-x="300" 
d="M427 1020q5 25 -8.5 42.5t-38.5 17.5q-26 0 -47 -17.5t-26 -42.5q-3 -14 -4 -42q-4 -68 8 -114q6 -24 18 -24q22 0 59 78q31 66 39 102z" />
    <glyph glyph-name="FL0028h" unicode="(" horiz-adv-x="390" 
d="M274 -120q29 0 51.5 22t22.5 51q0 21 -13.5 34t-34.5 13q-38 0 -43 97q-6 97 23 233l89 420q28 131 77 233q46 97 84 97q29 0 51 22t22 51q0 21 -13.5 34t-34.5 13q-87 0 -177 -132.5t-129 -317.5l-89 -420q-20 -94 -21 -175q-2 -167 61 -240q30 -35 74 -35z" />
    <glyph glyph-name="FL0029h" unicode=")" horiz-adv-x="390" 
d="M124 -120q87 0 177 132.5t129 317.5l89 420q20 94 21 175q2 167 -61 240q-31 35 -74 35q-29 0 -51.5 -22t-22.5 -51q0 -20 14 -33.5t35 -13.5q37 0 43 -97q5 -97 -24 -233l-89 -420q-29 -137 -76 -233.5t-84 -96.5q-29 0 -51.5 -22t-22.5 -51q0 -21 13.5 -34t34.5 -13z
" />
    <glyph glyph-name="asterisk" unicode="*" horiz-adv-x="500" 
d="M381 450l57 -84q16 -23 41 -22q53 1 73 55q9 24 -7 47l-65 95l105 95q25 23 26 47q2 53 -50 55q-24 1 -49 -22l-93 -85l-57 85q-15 23 -40 22q-55 -2 -75 -55q-8 -23 8 -47l64 -95l-104 -95q-26 -24 -27 -47q-2 -54 50 -55q25 -1 50 22z" />
    <glyph glyph-name="FL002Bh" unicode="+" horiz-adv-x="780" 
d="M394 300q-5 -25 8.5 -42.5t38.5 -17.5q26 0 47 17.5t26 42.5l38 180h180q29 0 51.5 22t22.5 51q0 21 -13.5 34t-34.5 13h-180l38 180q5 25 -8.5 42.5t-38.5 17.5q-26 0 -47 -17.5t-26 -42.5l-38 -180h-180q-29 0 -51.5 -22t-22.5 -51q0 -21 13.5 -34t34.5 -13h180z" />
    <glyph glyph-name="FL002Ch" unicode="," horiz-adv-x="359" 
d="M276 30l13 60q8 38 -12 64t-59 26q-38 0 -69.5 -26.5t-39.5 -63.5t11 -63t57 -27q-14 -24 -67 -48l-21 -100q68 10 119 62q46 46 68 116z" />
    <glyph glyph-name="FL002Dh" unicode="-" horiz-adv-x="808" 
d="M278 600q-29 0 -51.5 -22t-22.5 -51q0 -21 13.5 -34t34.5 -13h510q29 0 51.5 22t22.5 51q0 21 -13.5 34t-34.5 13h-510z" />
    <glyph glyph-name="FL002Dh" unicode="&#x2010;" horiz-adv-x="808" 
d="M278 600q-29 0 -51.5 -22t-22.5 -51q0 -21 13.5 -34t34.5 -13h510q29 0 51.5 22t22.5 51q0 21 -13.5 34t-34.5 13h-510z" />
    <glyph glyph-name="FL002Eh" unicode="." horiz-adv-x="359" 
d="M107 70q0 -32 20.5 -51t52.5 -19q44 0 77.5 33.5t33.5 76.5q0 32 -20.5 51t-52.5 19q-44 0 -77.5 -33.5t-33.5 -76.5z" />
    <glyph glyph-name="FL002Fh" unicode="/" horiz-adv-x="661" 
d="M684 1044l-575 -954q-19 -31 -14 -50q10 -39 49 -39q36 0 62 35l574 954q19 32 15 50q-10 39 -51 39q-34 0 -60 -35z" />
    <glyph glyph-name="FL0030h" unicode="0" 
d="M141 240q-6 -28 -6 -53q0 -66 40 -117q55 -70 155 -70t185 71t106 169l128 600q6 26 6 50q0 66 -42 119q-56 71 -153 71q-102 0 -186 -70t-105 -170zM501 240q-10 -49 -52.5 -84.5t-92.5 -35.5t-78 35q-20 25 -20 59q0 12 3 26l128 600q11 50 53.5 85t91.5 35
q50 0 76 -36q22 -25 22 -58q0 -13 -3 -26z" />
    <glyph glyph-name="FL0031h" unicode="1" horiz-adv-x="420" 
d="M223 60q-5 -25 8.5 -42.5t38.5 -17.5q26 0 47 17.5t26 42.5l204 960q5 25 -8.5 42.5t-38.5 17.5h-120q-29 0 -51.5 -22t-22.5 -51q0 -21 13.5 -34t34.5 -13h60z" />
    <glyph glyph-name="FL0032h" unicode="2" 
d="M150 0h360q29 0 51.5 22t22.5 51q0 21 -13.5 34t-34.5 13h-300l51 240q10 49 53 84.5t92 35.5q102 0 185.5 70t105.5 170l26 120q6 26 6 51q0 66 -41 118q-56 71 -154 71q-100 0 -185 -70.5t-106 -169.5q-5 -25 8.5 -42.5t38.5 -17.5t46.5 17.5t26.5 42.5q10 48 53 84
t92 36q41 0 69.5 -27.5t28.5 -67.5q0 -12 -3 -25l-26 -120q-11 -50 -53 -85t-92 -35q-101 0 -185.5 -70.5t-105.5 -169.5l-64 -300q-5 -25 8.5 -42.5t38.5 -17.5z" />
    <glyph glyph-name="FL0033h" unicode="3" 
d="M249 750q-5 -25 9 -42.5t39 -17.5q26 0 46 17.5t26 42.5l20 90q11 50 53.5 85t91.5 35q50 0 76 -36q22 -25 22 -58q0 -13 -3 -26l-26 -120q-10 -46 -51 -83t-87 -37h-7q-29 0 -51.5 -22t-22.5 -51q0 -21 13.5 -34t34.5 -13h7q40 0 69 -36q22 -27 22 -60q0 -12 -3 -24
l-26 -120q-11 -49 -53 -84.5t-92 -35.5t-78 35q-20 25 -20 59q0 12 3 26l19 90q5 25 -8.5 42.5t-38.5 17.5q-26 0 -47 -17.5t-26 -42.5l-19 -90q-6 -28 -6 -53q0 -66 40 -117q55 -70 155 -70t185 71t106 169l26 120q6 26 6 50q0 39 -14 70q-8 16 -37 60q96 64 121 180
l26 120q6 26 6 50q0 66 -42 119q-56 71 -153 71q-102 0 -185.5 -70t-105.5 -170z" />
    <glyph glyph-name="FL0034h" unicode="4" horiz-adv-x="689" 
d="M677 360q29 0 51 22t22 51q0 21 -13.5 34t-34.5 13h-30l115 540q5 25 -8.5 42.5t-38.5 17.5q-26 0 -47 -17.5t-26 -42.5l-115 -540h-224l244 525q14 30 4 50q-15 27 -47 27q-45 0 -67 -47l-278 -600q-14 -31 -3 -50q10 -20 32 -25h314l-64 -300q-5 -25 8.5 -42.5
t38.5 -17.5q26 0 47 17.5t26 42.5l64 300h30z" />
    <glyph glyph-name="FL0035h" unicode="5" 
d="M252 480h180q48 0 76 -36q22 -27 22 -60q0 -12 -3 -24l-26 -120q-11 -49 -53 -84.5t-92 -35.5t-78 35q-20 25 -20 59q0 12 3 26q5 25 -8.5 42.5t-38.5 17.5q-26 0 -47 -17.5t-26 -42.5q-6 -28 -6 -53q0 -66 40 -117q55 -70 155 -70t185 71t106 169l26 120q6 26 6 50
q0 66 -42 119q-56 71 -153 71h-120l76 360h300q29 0 51.5 22t22.5 51q0 21 -13.5 34t-34.5 13h-360q-26 0 -47 -17.5t-26 -42.5l-102 -480q-5 -25 8.5 -42.5t38.5 -17.5z" />
    <glyph glyph-name="FL0036h" unicode="6" 
d="M338 600l51 240q11 50 53.5 85t91.5 35q50 0 76 -36q22 -25 22 -58q0 -13 -3 -26q-5 -25 8.5 -42.5t38.5 -17.5q26 0 47 17.5t26.5 43t5.5 49.5q0 66 -42 119q-56 71 -153 71q-102 0 -186 -70t-105 -170l-128 -600q-6 -28 -6 -53q0 -66 40 -117q55 -70 155 -70t185 71
t106 169l26 120q6 26 6 50q0 66 -42 119q-56 71 -153 71h-120zM432 480q48 0 76 -36q22 -27 22 -60q0 -12 -3 -24l-26 -120q-11 -49 -53 -84.5t-92 -35.5t-78 35q-20 25 -20 59q0 12 3 26l51 240h120z" />
    <glyph glyph-name="seven" unicode="7" 
d="M354 960h281l-437 -884q-15 -30 -5 -50q14 -28 46 -28q45 0 68 46l474 958q9 18 8 34q-2 29 -28 40q-11 4 -27 4h-354q-29 0 -51.5 -22t-22.5 -51q0 -21 13.5 -34t34.5 -13z" />
    <glyph glyph-name="FL0038h" unicode="8" 
d="M243 720q-6 -28 -6 -53q0 -66 40 -117q2 -4 9 -11q-5 -3 -14 -10q-83 -69 -105 -169l-26 -120q-6 -28 -6 -53q0 -66 40 -117q55 -70 155 -70t185 71t106 169l26 120q6 26 6 50q0 39 -14 70q-8 16 -37 60q96 64 121 180l26 120q6 26 6 50q0 66 -42 119q-56 71 -153 71
q-102 0 -185.5 -70t-105.5 -170zM603 720q-10 -46 -51 -83t-87 -37h-15q-38 0 -64 28t-26 66q0 13 3 26l26 120q11 50 53.5 85t91.5 35q50 0 76 -36q22 -25 22 -58q0 -13 -3 -26zM501 240q-11 -49 -53 -84.5t-92 -35.5t-78 35q-20 25 -20 59q0 12 3 26l26 120q11 50 53.5 85
t83.5 35h15q40 0 69 -36q22 -27 22 -60q0 -12 -3 -24z" />
    <glyph glyph-name="FL0039h" unicode="9" 
d="M552 480l-51 -240q-10 -49 -53 -84.5t-92 -35.5q-48 0 -77 36q-21 26 -21 59q0 12 3 25q5 25 -8.5 42.5t-38.5 17.5q-26 0 -47 -17.5t-26.5 -43.5t-5.5 -50q0 -66 41 -118q56 -71 154 -71q101 0 185.5 70.5t105.5 169.5l128 600q6 28 6 53q0 66 -40 117q-55 70 -155 70
q-101 0 -185.5 -70.5t-105.5 -169.5l-26 -120q-6 -27 -6 -52q0 -65 41 -117q56 -71 154 -71h120zM458 600q-48 0 -77 36q-21 26 -21 59q0 12 3 25l26 120q11 49 53 84.5t92 35.5t78 -35q20 -25 20 -59q0 -12 -3 -26l-51 -240h-120z" />
    <glyph glyph-name="colon" unicode=":" horiz-adv-x="359" 
d="M247 730q0 -32 20.5 -51t52.5 -19q44 0 77.5 33.5t33.5 77.5q0 31 -20 50t-52 19q-44 0 -78 -33.5t-34 -76.5zM158 310q0 -32 20.5 -51t52.5 -19q44 0 77.5 33.5t33.5 76.5q0 32 -20.5 51t-52.5 19q-44 0 -77.5 -33.5t-33.5 -76.5z" />
    <glyph glyph-name="FL003Bh" unicode=";" horiz-adv-x="359" 
d="M327 270l13 60q8 38 -12 64t-59 26q-38 0 -69.5 -26.5t-39.5 -63.5t11 -63t57 -27q-14 -24 -67 -48l-21 -100q68 10 119 62q46 46 68 116zM247 730q0 -32 20.5 -51t52.5 -19q44 0 77.5 33.5t33.5 77.5q0 31 -20 50t-52 19q-44 0 -78 -33.5t-34 -76.5z" />
    <glyph glyph-name="FL003Ch" unicode="&#x3c;" horiz-adv-x="667" 
d="M224 480l309 -240q22 -17 47 -10q54 16 60 69q2 24 -20 41l-257 200l342 200q42 24 42 63q0 36 -35 47q-22 7 -51 -10l-411 -240q-46 -27 -46 -73q0 -31 20 -47z" />
    <glyph glyph-name="FL003Dh" unicode="=" horiz-adv-x="808" 
d="M309 750q-29 0 -51 -22t-22 -51q0 -21 13.5 -34t34.5 -13h510q29 0 51.5 22t22.5 51q0 20 -14 33.5t-35 13.5h-510zM246 450q-29 0 -51.5 -22t-22.5 -51q0 -21 13.5 -34t34.5 -13h510q29 0 51.5 22t22.5 51q0 21 -13.5 34t-34.5 13h-510z" />
    <glyph glyph-name="FL003Eh" unicode="&#x3e;" horiz-adv-x="667" 
d="M648 480q46 27 46 77q0 27 -20 43l-309 240q-22 17 -48 10q-54 -15 -59 -69q-3 -24 19 -41l258 -200l-343 -200q-41 -24 -41 -62q0 -37 35 -48q22 -7 51 10z" />
    <glyph glyph-name="FL003Fh" unicode="?" 
d="M321 240h120l53 247q65 15 123 63q84 69 106 170l26 120q6 26 6 51q0 66 -41 118q-56 71 -154 71q-100 0 -185 -70.5t-106 -169.5q-5 -25 8.5 -42.5t38.5 -17.5t46.5 17.5t26.5 42.5q10 48 53 84t92 36q41 0 69.5 -27.5t28.5 -67.5q0 -12 -3 -25l-26 -120
q-11 -50 -53 -85t-92 -35q-30 0 -62 -8zM257 70q0 -32 20.5 -51t52.5 -19q44 0 77.5 33.5t33.5 76.5q0 32 -20.5 51t-52.5 19q-44 0 -77.5 -33.5t-33.5 -76.5z" />
    <glyph glyph-name="FL0041h" unicode="A" 
d="M463 60q-5 -25 8.5 -42.5t38.5 -17.5q26 0 47 17.5t26 42.5l166 780q6 26 6 50q0 66 -42 119q-56 71 -153 71q-102 0 -186 -70t-105 -170l-166 -780q-5 -25 8.5 -42.5t38.5 -17.5q26 0 47 17.5t26 42.5l64 300h240zM552 480h-240l77 360q11 50 53.5 85t91.5 35
q50 0 76 -36q22 -25 22 -58q0 -13 -3 -26z" />
    <glyph glyph-name="FL0042h" unicode="B" 
d="M150 0h180q100 0 185 71t106 169l26 120q6 26 6 50q0 39 -14 70q-8 16 -37 60q96 64 121 180l26 120q6 26 6 50q0 66 -42 119q-56 71 -153 71h-180q-26 0 -47 -17.5t-26 -42.5l-204 -960q-5 -25 8.5 -42.5t38.5 -17.5zM338 600l76 360h120q50 0 76 -36q22 -25 22 -58
q0 -13 -3 -26l-26 -120q-10 -46 -51 -83t-87 -37h-127zM236 120l76 360h127q40 0 69 -36q22 -27 22 -60q0 -12 -3 -24l-26 -120q-11 -49 -53 -84.5t-92 -35.5h-120z" />
    <glyph glyph-name="FL0043h" unicode="C" 
d="M621 240q5 25 -8.5 42.5t-38.5 17.5t-46.5 -17.5t-26.5 -42.5q-10 -49 -53 -84.5t-92 -35.5q-50 0 -78 35q-20 25 -20 59q0 12 3 26l128 600q11 50 53.5 85t91.5 35q50 0 76 -36q22 -25 22 -58q0 -13 -3 -26q-5 -25 8.5 -42.5t38.5 -17.5t46.5 17.5t26.5 43t5 49.5
q0 67 -41 119q-56 71 -153 71q-101 0 -185.5 -70.5t-105.5 -169.5l-128 -600q-6 -28 -6 -53q0 -66 40 -117q55 -70 155 -70q101 0 185.5 70.5t105.5 169.5z" />
    <glyph glyph-name="FL0044h" unicode="D" 
d="M150 0h180q100 0 185 71t106 169l128 600q6 26 6 50q0 66 -42 119q-56 71 -153 71h-180q-26 0 -47 -17.5t-26 -42.5l-204 -960q-5 -25 8.5 -42.5t38.5 -17.5zM236 120l178 840h120q50 0 76 -36q22 -25 22 -58q0 -13 -3 -26l-128 -600q-10 -49 -52.5 -84.5t-92.5 -35.5
h-120z" />
    <glyph glyph-name="FL0045h" unicode="E" horiz-adv-x="661" 
d="M552 480q29 0 51.5 22t22.5 51q0 21 -13.5 34t-34.5 13h-240l76 360h300q29 0 51.5 22t22.5 51q0 21 -13.5 34t-34.5 13h-360q-26 0 -47 -17.5t-26 -42.5l-204 -960q-5 -25 8.5 -42.5t38.5 -17.5h360q29 0 51.5 22t22.5 51q0 21 -13.5 34t-34.5 13h-300l76 360h240z" />
    <glyph glyph-name="FL0046h" unicode="F" 
d="M103 60q-5 -25 8.5 -42.5t38.5 -17.5q26 0 47 17.5t26 42.5l89 420h240q29 0 51.5 22t22.5 51q0 21 -13.5 34t-34.5 13h-240l76 360h300q29 0 51.5 22t22.5 51q0 21 -13.5 34t-34.5 13h-360q-26 0 -47 -17.5t-26 -42.5z" />
    <glyph glyph-name="FL0047h" unicode="G" 
d="M458 600q-29 0 -51.5 -22t-22.5 -51q0 -21 13.5 -34t34.5 -13h120l-51 -240q-10 -49 -52.5 -84.5t-92.5 -35.5t-78 35q-20 25 -20 59q0 12 3 26l128 600q11 50 53.5 85t91.5 35q50 0 76 -36q22 -25 22 -58q0 -13 -3 -26q-5 -25 8.5 -42.5t38.5 -17.5t46.5 17.5t26.5 43
t5 49.5q0 67 -41 119q-56 71 -153 71q-101 0 -185.5 -70.5t-105.5 -169.5l-128 -600q-6 -28 -6 -53q0 -66 40 -117q55 -70 155 -70q101 0 185.5 70.5t105.5 169.5l64 300q5 25 -8.5 42.5t-38.5 17.5h-180z" />
    <glyph glyph-name="FL0048h" unicode="H" 
d="M103 60q-5 -25 8.5 -42.5t38.5 -17.5q26 0 47 17.5t26 42.5l89 420h240l-89 -420q-5 -25 8.5 -42.5t38.5 -17.5q26 0 47 17.5t26 42.5l204 960q5 25 -8.5 42.5t-38.5 17.5q-26 0 -47 -17.5t-26 -42.5l-89 -420h-240l89 420q5 25 -8.5 42.5t-38.5 17.5q-26 0 -47 -17.5
t-26 -42.5z" />
    <glyph glyph-name="FL0049h" unicode="I" horiz-adv-x="480" 
d="M176 120q-29 0 -51.5 -22t-22.5 -51q0 -21 13.5 -34t34.5 -13h180q29 0 51.5 22t22.5 51q0 21 -13.5 34t-34.5 13h-30l178 840h30q29 0 51.5 22t22.5 51q0 21 -13.5 34t-34.5 13h-180q-29 0 -51.5 -22t-22.5 -51q0 -21 13.5 -34t34.5 -13h30l-178 -840h-30z" />
    <glyph glyph-name="FL004Ah" unicode="J" 
d="M261 240q5 25 -8.5 42.5t-38.5 17.5q-26 0 -47 -17.5t-26.5 -43.5t-5.5 -51q0 -66 40 -117q55 -70 155 -70q99 0 184.5 71t106.5 168l166 780q5 25 -8.5 42.5t-38.5 17.5q-26 0 -47 -17.5t-26 -42.5l-166 -780q-10 -47 -54 -83t-91 -36q-42 0 -70 26.5t-28 67.5
q0 12 3 25z" />
    <glyph glyph-name="FL004Bh" unicode="K" horiz-adv-x="719" 
d="M829 986q23 25 21 48q-4 51 -57 47q-25 -2 -48 -27l-406 -445l88 411q5 25 -8.5 42.5t-38.5 17.5q-26 0 -47 -17.5t-26 -42.5l-204 -960q-5 -25 8.5 -42.5t38.5 -17.5q26 0 47 17.5t26 42.5l87 411l217 -445q13 -26 36 -28q51 -4 77 47q11 24 -1 49l-220 451z" />
    <glyph glyph-name="FL004Ch" unicode="L" 
d="M510 0q29 0 51.5 22t22.5 51q0 21 -13.5 34t-34.5 13h-300l191 900q5 25 -8.5 42.5t-38.5 17.5q-26 0 -47 -17.5t-26 -42.5l-204 -960q-5 -25 8.5 -42.5t38.5 -17.5h360z" />
    <glyph glyph-name="FL004Dh" unicode="M" horiz-adv-x="1020" 
d="M103 60q-5 -25 8.5 -42.5t38.5 -17.5q26 0 47 17.5t26 42.5l166 780q11 50 53.5 85t91.5 35q75 0 94 -70q6 -24 2 -45l-167 -785q-5 -25 8.5 -42.5t38.5 -17.5q26 0 47 17.5t26 42.5l167 785q10 46 53.5 80.5t90.5 34.5q50 0 76 -36q22 -25 22 -58q0 -13 -3 -26
l-166 -780q-5 -25 8.5 -42.5t38.5 -17.5q26 0 47 17.5t26 42.5l166 780q6 26 6 50q0 66 -42 119q-56 71 -153 71q-110 0 -198 -82q-52 82 -162 82q-102 0 -186 -70t-105 -170z" />
    <glyph glyph-name="FL004Eh" unicode="N" 
d="M103 60q-5 -25 8.5 -42.5t38.5 -17.5q26 0 47 17.5t26 42.5l166 780q11 50 53.5 85t91.5 35q50 0 76 -36q22 -25 22 -58q0 -13 -3 -26l-166 -780q-5 -25 8.5 -42.5t38.5 -17.5q26 0 47 17.5t26 42.5l166 780q6 26 6 50q0 66 -42 119q-56 71 -153 71q-102 0 -186 -70
t-105 -170z" />
    <glyph glyph-name="FL004Fh" unicode="O" 
d="M141 240q-6 -28 -6 -53q0 -66 40 -117q55 -70 155 -70t185 71t106 169l128 600q6 26 6 50q0 66 -42 119q-56 71 -153 71q-102 0 -186 -70t-105 -170zM501 240q-10 -49 -52.5 -84.5t-92.5 -35.5t-78 35q-20 25 -20 59q0 12 3 26l128 600q11 50 53.5 85t91.5 35
q50 0 76 -36q22 -25 22 -58q0 -13 -3 -26z" />
    <glyph glyph-name="FL0050h" unicode="P" 
d="M103 61q-5 -25 8.5 -42.5t38.5 -17.5q26 0 47 17.5t26 42.5l45 212q46 -33 113 -33q101 0 185.5 70.5t105.5 169.5l77 360q6 26 6 50q0 66 -42 119q-56 71 -153 71q-101 0 -185.5 -70.5t-105.5 -169.5zM629 840l-77 -360q-10 -49 -52.5 -84.5t-92.5 -35.5q-41 0 -70 26
t-29 66q0 11 3 23l78 365q11 50 53.5 85t91.5 35q50 0 76 -36q22 -25 22 -58q0 -13 -3 -26z" />
    <glyph glyph-name="FL0051h" unicode="Q" 
d="M277 6q0 -64 40 -115q55 -71 155 -71q26 0 46 17.5t26 42.5t-7.5 42.5t-39.5 17.5q-71 0 -94 70q60 17 112 60q85 71 106 170l128 600q6 26 6 51q0 66 -41 118q-56 71 -154 71q-101 0 -185.5 -70.5t-105.5 -169.5l-128 -600q-6 -27 -6 -52q0 -65 39.5 -116t102.5 -66z
M261 240l128 600q10 49 53 84.5t92 35.5q41 0 69.5 -27.5t28.5 -68.5q0 -11 -3 -24l-128 -600q-11 -50 -53 -85t-92 -35q-42 0 -70 27t-28 68q0 12 3 25z" />
    <glyph glyph-name="FL0052h" unicode="R" 
d="M583 81l-64 414q51 18 97 56q86 71 107 169l26 120q6 26 6 50q0 66 -42 119q-56 71 -153 71q-102 0 -186 -70t-105 -170l-166 -780q-5 -25 8.5 -42.5t38.5 -17.5q26 0 47 17.5t26 42.5l89 420h82l68 -441q6 -36 41 -41q30 -4 58 20.5t22 62.5zM603 720q-11 -49 -53 -84.5
t-92 -35.5h-120l51 240q11 50 53.5 85t91.5 35q50 0 76 -36q22 -25 22 -58q0 -13 -3 -26z" />
    <glyph glyph-name="FL0053h" unicode="S" 
d="M243 720q-6 -28 -6 -53q0 -66 40 -117q55 -70 155 -70q48 0 76 -36q22 -27 22 -60q0 -12 -3 -24l-26 -120q-11 -49 -53 -84.5t-92 -35.5t-78 35q-20 25 -20 59q0 12 3 26q5 25 -8.5 42.5t-38.5 17.5q-26 0 -47 -17.5t-26 -42.5q-6 -28 -6 -53q0 -66 40 -117
q55 -70 155 -70t185 71t106 169l26 120q6 26 6 50q0 66 -42 119q-56 71 -153 71q-50 0 -78 35q-20 25 -20 59q0 12 3 26l26 120q11 50 53.5 85t91.5 35q50 0 76 -36q22 -25 22 -58q0 -13 -3 -26q-5 -25 8.5 -42.5t38.5 -17.5q26 0 47 17.5t26.5 43t5.5 49.5q0 66 -42 119
q-56 71 -153 71q-102 0 -185.5 -70t-105.5 -170z" />
    <glyph glyph-name="FL0055h" unicode="U" 
d="M787 1020q5 25 -8.5 42.5t-38.5 17.5q-26 0 -47 -17.5t-26 -42.5l-166 -780q-10 -49 -52.5 -84.5t-92.5 -35.5t-78 35q-20 25 -20 59q0 12 3 26l166 780q5 25 -8.5 42.5t-38.5 17.5q-26 0 -47 -17.5t-26 -42.5l-166 -780q-6 -28 -6 -53q0 -66 40 -117q55 -70 155 -70
t185 71t106 169z" />
    <glyph glyph-name="FL0056h" unicode="V" horiz-adv-x="720" 
d="M844 1001q14 33 3 55q-12 24 -45 24q-48 0 -67 -45l-316 -765l10 765q-5 45 -48 45q-32 0 -55.5 -24t-19.5 -55l5 -958q0 -46 49 -46h1q26 0 47 15q16 15 23 31z" />
    <glyph glyph-name="FL0057h" unicode="W" horiz-adv-x="1141" 
d="M847 1020q0 25 -12 45q-10 15 -35 15q-48 0 -73 -60l-308 -750l10 765q-5 45 -48 45q-32 0 -55.5 -24t-19.5 -55l5 -958q0 -46 49 -46h1q26 0 47 15q16 15 23 31l295 685l4 -685q0 -46 49 -46h1q26 0 47 15q16 15 23 31l413 958q14 33 3 55q-12 24 -45 24q-48 0 -67 -45
l-316 -765z" />
    <glyph glyph-name="FL0058h" unicode="X" horiz-adv-x="750" 
d="M424 1050q-11 25 -35 29q-51 8 -79 -44q-6 -11 -5 -21q0 -7 4 -24l109 -452l-300 -448q-22 -25 -19 -49q5 -43 46 -43q7 0 14 1q25 1 48 27l258 398l90 -398q10 -24 34 -27q52 -6 80 42q13 22 1 49l-110 448l302 452q20 30 18 45q-7 51 -61 44q-24 -3 -47 -29l-259 -399z
" />
    <glyph glyph-name="FL0059h" unicode="Y" horiz-adv-x="750" 
d="M328 60q-5 -25 8.5 -42.5t38.5 -17.5q26 0 47 17.5t26 42.5l95 450l319 480q20 30 18 45q-7 52 -61 44q-24 -3 -47 -29l-259 -399l-89 399q-11 26 -35 29q-50 7 -79 -44q-6 -11 -5 -21q0 -7 4 -24l115 -478z" />
    <glyph glyph-name="FL005Ah" unicode="Z" horiz-adv-x="669" 
d="M150 0h367q29 0 51.5 22t22.5 51q0 21 -13.5 34t-34.5 13h-275l512 870q14 19 16 37q2 25 -15.5 40.5t-42.5 12.5h-358q-29 0 -51.5 -22t-22.5 -51q0 -21 13.5 -34t34.5 -13h268l-513 -870q-14 -17 -15 -36q-3 -54 56 -54z" />
    <glyph glyph-name="FL005Bh" unicode="[" horiz-adv-x="390" 
d="M495 1200h-90q-26 0 -47 -17.5t-26 -42.5l-255 -1200q-5 -25 8.5 -42.5t38.5 -17.5h90q29 0 51.5 22t22.5 51q0 21 -13.5 34t-34.5 13h-30l230 1080h30q29 0 51 22t22 51q0 21 -13.5 34t-34.5 13z" />
    <glyph glyph-name="FL005Ch" unicode="\" horiz-adv-x="661" 
d="M420 1044q-11 35 -46 35q-40 0 -67 -39q-15 -22 -7 -50l170 -954q11 -35 46 -35q40 0 67 39q14 21 6 50z" />
    <glyph glyph-name="FL005Dh" unicode="]" horiz-adv-x="390" 
d="M405 1200q-29 0 -51.5 -22t-22.5 -51q0 -20 14 -33.5t35 -13.5h30l-230 -1080h-30q-29 0 -51.5 -22t-22.5 -51q0 -21 13.5 -34t34.5 -13h90q26 0 47 17.5t26 42.5l255 1200q5 25 -8.5 42.5t-38.5 17.5h-90z" />
    <glyph glyph-name="asciicircum" unicode="^" horiz-adv-x="500" 
d="M402 835l-169 -90q-21 -11 -21 -32q0 -18 15 -24q10 -4 25 4l169 90q22 12 22 33q0 16 -15 23q-11 4 -26 -4z" />
    <glyph glyph-name="FL0061h" unicode="a" 
d="M218 600q-5 -25 8.5 -42.5t38.5 -17.5q26 0 47 17.5t26 42.5q10 49 52.5 84.5t92.5 35.5q48 0 78 -35q20 -28 20 -60q0 -12 -3 -25l-26 -120h-120q-100 0 -185 -71t-106 -169q-6 -27 -6 -51q0 -66 41 -118q56 -71 154 -71q101 0 185.5 70.5t105.5 169.5l77 360q6 28 6 53
q0 66 -40 117q-55 70 -155 70t-185.5 -71t-105.5 -169zM501 240q-11 -49 -53 -84.5t-92 -35.5q-48 0 -77 36q-21 26 -21 59q0 64 57 110q43 35 92 35h120z" />
    <glyph glyph-name="b" unicode="b" 
d="M427 1020q5 25 -8.5 42.5t-38.5 17.5q-26 0 -47 -17.5t-26 -42.5l-166 -780q-6 -28 -6 -53q0 -66 40 -117q55 -70 155 -70t185 71t106 169l77 360q6 26 6 50q0 66 -42 119q-56 71 -153 71q-67 0 -127 -33zM501 240q-10 -49 -52.5 -84.5t-92.5 -35.5t-78 35q-20 25 -20 59
q0 12 3 26l78 365q10 46 53.5 80.5t90.5 34.5q48 0 76 -36q22 -27 22 -60q0 -12 -3 -24z" />
    <glyph glyph-name="c" unicode="c" 
d="M621 240q5 25 -8.5 42.5t-38.5 17.5t-46.5 -17.5t-26.5 -42.5q-10 -49 -53 -84.5t-92 -35.5q-50 0 -78 35q-20 25 -20 59q0 12 3 26l77 360q11 50 53 85t92 35q41 0 69 -28t28 -69q0 -11 -2 -23q-5 -25 8.5 -42.5t38.5 -17.5t46.5 17.5t26.5 43t5 49.5q0 67 -41 119
q-56 71 -153 71q-101 0 -185.5 -70.5t-105.5 -169.5l-77 -360q-6 -28 -6 -53q0 -66 40 -117q55 -70 155 -70q101 0 185.5 70.5t105.5 169.5z" />
    <glyph glyph-name="d" unicode="d" 
d="M787 1020q5 25 -8.5 42.5t-38.5 17.5q-26 0 -47 -17.5t-26 -42.5l-45 -213q-48 33 -113 33q-101 0 -185.5 -70.5t-105.5 -169.5l-77 -360q-6 -28 -6 -53q0 -66 40 -117q55 -70 155 -70q101 0 185.5 70.5t105.5 169.5zM261 240l77 360q11 50 53 85t92 35q48 0 77 -35
q21 -26 21 -58q0 -11 -2 -22l-78 -365q-10 -49 -52.5 -84.5t-92.5 -35.5t-78 35q-20 25 -20 59q0 12 3 26z" />
    <glyph glyph-name="e" unicode="e" 
d="M621 240q5 25 -8.5 42.5t-38.5 17.5t-46.5 -17.5t-26.5 -42.5q-10 -49 -53 -84.5t-92 -35.5q-50 0 -78 35q-20 25 -20 59q0 12 3 26l26 120h120q100 0 185 71t106 169q6 26 6 50q0 66 -42 119q-56 71 -153 71q-102 0 -186 -70t-105 -170l-77 -360q-6 -28 -6 -53
q0 -66 40 -117q55 -70 155 -70q99 0 184.5 71t106.5 169zM338 600q11 50 53 85t92 35q41 0 69 -28t28 -68q0 -62 -57 -109q-42 -35 -91 -35h-120z" />
    <glyph glyph-name="f" unicode="f" horiz-adv-x="479" 
d="M389 840q10 49 52.5 84.5t92.5 35.5q29 0 51.5 22t22.5 51q0 21 -13.5 34t-34.5 13q-102 0 -186 -70t-105 -170l-166 -780q-5 -25 8.5 -42.5t38.5 -17.5q26 0 47 17.5t26 42.5l140 660h120q29 0 51.5 22t22.5 51q0 21 -13.5 34t-34.5 13h-120z" />
    <glyph glyph-name="g" unicode="g" 
d="M210 0q5 25 -8.5 42.5t-38.5 17.5q-26 0 -47 -17.5t-26.5 -43.5t-5.5 -51q0 -66 40 -117q55 -70 155 -70q99 0 184.5 71t106.5 168l128 600q6 26 6 50q0 66 -42 119q-56 71 -153 71q-102 0 -186 -70t-105 -170l-51 -240q-6 -29 -6 -55q0 -65 39 -115q55 -70 156 -70
q65 0 127 33l-33 -153q-10 -47 -54 -83t-91 -36q-42 0 -70 26.5t-28 67.5q0 12 3 25zM338 600q11 50 53 85t92 35q48 0 76 -36q22 -27 22 -60q0 -12 -3 -24l-53 -245q-10 -47 -52.5 -81t-91.5 -34q-48 0 -78 35q-19 27 -19 59q0 13 3 26z" />
    <glyph glyph-name="h" unicode="h" 
d="M427 1020q5 25 -8.5 42.5t-38.5 17.5q-26 0 -47 -17.5t-26 -42.5l-204 -960q-5 -25 8.5 -42.5t38.5 -17.5q26 0 47 17.5t26 42.5l115 540q11 50 53 85t92 35q48 0 76 -36q22 -27 22 -60q0 -12 -3 -24l-115 -540q-5 -25 8.5 -42.5t38.5 -17.5q26 0 47 17.5t26 42.5
l115 540q6 26 6 50q0 66 -42 119q-56 71 -153 71q-67 0 -127 -33z" />
    <glyph glyph-name="i" unicode="i" horiz-adv-x="299" 
d="M103 60q-5 -25 8.5 -42.5t38.5 -17.5q26 0 47 17.5t26 42.5l153 720q5 25 -8.5 42.5t-38.5 17.5q-26 0 -47 -17.5t-26 -42.5zM428 1033q0 21 -13.5 34t-34.5 13q-29 0 -51.5 -22t-22.5 -51q0 -21 13.5 -34t34.5 -13q29 0 51.5 22t22.5 51z" />
    <glyph glyph-name="j" unicode="j" horiz-adv-x="300" 
d="M256 780l-166 -780q-10 -47 -54 -83t-90 -36q-29 0 -51.5 -22t-22.5 -51q0 -21 13.5 -34t34.5 -13q98 0 183.5 71t106.5 168l166 780q5 25 -8.5 42.5t-38.5 17.5q-26 0 -47 -17.5t-26 -42.5zM428 1033q0 21 -13.5 34t-34.5 13q-29 0 -51.5 -22t-22.5 -51q0 -21 13.5 -34
t34.5 -13q29 0 51.5 22t22.5 51z" />
    <glyph glyph-name="k" unicode="k" 
d="M630 810l-263 -330h-55l115 540q5 25 -8.5 42.5t-38.5 17.5q-26 0 -47 -17.5t-26 -42.5l-204 -960q-5 -25 8.5 -42.5t38.5 -17.5q26 0 47 17.5t26 42.5l64 300h120q41 0 69 -27.5t28 -68.5q0 -11 -3 -24l-38 -180q-5 -25 8.5 -42.5t38.5 -17.5q26 0 47 17.5t26 42.5
l38 180q6 27 6 52q0 66 -41 117q-36 45 -87 61l222 280q22 28 19 50q-7 42 -51 42q-33 0 -59 -32z" />
    <glyph glyph-name="l" unicode="l" horiz-adv-x="479" 
d="M427 1020q5 25 -8.5 42.5t-38.5 17.5q-26 0 -47 -17.5t-26 -42.5l-166 -780q-6 -28 -6 -53q0 -66 40 -117q55 -70 155 -70q29 0 51.5 22t22.5 51q0 21 -13.5 34t-34.5 13q-50 0 -78 35q-20 25 -20 59q0 12 3 26z" />
    <glyph glyph-name="m" unicode="m" horiz-adv-x="1020" 
d="M103 60q-5 -25 8.5 -42.5t38.5 -17.5q26 0 47 17.5t26 42.5l115 540q11 50 53 85t92 35q75 0 94 -70q6 -24 2 -45l-116 -545q-5 -25 8.5 -42.5t38.5 -17.5q26 0 47 17.5t26 42.5l116 545q10 46 53.5 80.5t90.5 34.5q48 0 76 -36q22 -27 22 -60q0 -12 -3 -24l-115 -540
q-5 -25 8.5 -42.5t38.5 -17.5q26 0 47 17.5t26 42.5l115 540q6 26 6 50q0 66 -42 119q-56 71 -153 71q-110 0 -198 -82q-52 82 -162 82q-102 0 -186 -70t-105 -170z" />
    <glyph glyph-name="n" unicode="n" 
d="M103 60q-5 -25 8.5 -42.5t38.5 -17.5q26 0 47 17.5t26 42.5l115 540q11 50 53 85t92 35q48 0 76 -36q22 -27 22 -60q0 -12 -3 -24l-115 -540q-5 -25 8.5 -42.5t38.5 -17.5q26 0 47 17.5t26 42.5l115 540q6 26 6 50q0 66 -42 119q-56 71 -153 71q-102 0 -186 -70
t-105 -170z" />
    <glyph glyph-name="o" unicode="o" 
d="M141 240q-6 -28 -6 -53q0 -66 40 -117q55 -70 155 -70t185 71t106 169l77 360q6 26 6 50q0 66 -42 119q-56 71 -153 71q-102 0 -186 -70t-105 -170zM501 240q-10 -49 -52.5 -84.5t-92.5 -35.5t-78 35q-20 25 -20 59q0 12 3 26l77 360q11 50 53 85t92 35q48 0 76 -36
q22 -27 22 -60q0 -12 -3 -24z" />
    <glyph glyph-name="p" unicode="p" 
d="M52 -179q-5 -25 8.5 -42.5t38.5 -17.5q26 0 47 17.5t26 42.5l45 212q46 -33 113 -33q101 0 185.5 70.5t105.5 169.5l77 360q6 26 6 50q0 66 -42 119q-56 71 -153 71q-101 0 -185.5 -70.5t-105.5 -169.5zM578 600l-77 -360q-10 -49 -52.5 -84.5t-92.5 -35.5q-41 0 -70 26
t-29 66q0 11 3 23l78 365q11 50 53 85t92 35q48 0 76 -36q22 -27 22 -60q0 -12 -3 -24z" />
    <glyph glyph-name="q" unicode="q" 
d="M412 -179q-5 -25 8.5 -42.5t38.5 -17.5q26 0 47 17.5t26 42.5l166 779q6 26 6 50q0 66 -42 119q-56 71 -153 71q-102 0 -186 -70t-105 -170l-77 -360q-6 -28 -6 -53q0 -66 40 -117q55 -70 155 -70q65 0 127 33zM338 600q11 50 53 85t92 35q48 0 76 -36q22 -27 22 -60
q0 -12 -3 -24l-78 -365q-10 -47 -52.5 -81t-91.5 -34q-50 0 -78 35q-20 25 -20 59q0 12 3 26z" />
    <glyph glyph-name="r" unicode="r" horiz-adv-x="479" 
d="M103 60q-5 -25 8.5 -42.5t38.5 -17.5q26 0 47 17.5t26 42.5l115 540q11 50 53 85t92 35q29 0 51.5 22t22.5 51q0 21 -13.5 34t-34.5 13q-102 0 -186 -70t-105 -170z" />
    <glyph glyph-name="s" unicode="s" 
d="M578 600q-5 -25 8.5 -42.5t38.5 -17.5q26 0 47 17.5t26.5 43t5.5 49.5q0 66 -42 119q-56 71 -153 71q-101 0 -185.5 -70t-105.5 -170q-6 -29 -6 -55q0 -65 39 -115q55 -70 156 -70q41 0 69 -27.5t28 -68.5q0 -63 -57 -109q-43 -35 -91 -35q-50 0 -78 35q-20 25 -20 59
q0 12 3 26q5 25 -8.5 42.5t-38.5 17.5q-26 0 -47 -17.5t-26 -42.5q-6 -28 -6 -53q0 -66 40 -117q55 -70 155 -70t185 71t106 169q6 27 6 51q0 66 -41 118q-56 71 -154 71q-48 0 -78 35q-19 27 -19 59q0 64 55 110q43 36 93 36q41 0 69 -28t28 -69q0 -11 -2 -23z" />
    <glyph glyph-name="t" unicode="t" horiz-adv-x="479" 
d="M427 1020q5 25 -8.5 42.5t-38.5 17.5q-26 0 -47 -17.5t-26 -42.5l-166 -780q-6 -28 -6 -53q0 -66 40 -117q55 -70 155 -70q29 0 51.5 22t22.5 51q0 21 -13.5 34t-34.5 13q-50 0 -78 35q-20 25 -20 59q0 12 3 26l102 480h120q29 0 51.5 22t22.5 51q0 21 -13.5 34t-34.5 13
h-120z" />
    <glyph glyph-name="u" unicode="u" 
d="M376 780q5 25 -8.5 42.5t-38.5 17.5q-26 0 -47 -17.5t-26 -42.5l-115 -540q-6 -28 -6 -53q0 -66 40 -117q55 -70 155 -70t185 71t106 169l115 540q5 25 -8.5 42.5t-38.5 17.5q-26 0 -47 -17.5t-26 -42.5l-115 -540q-10 -49 -52.5 -84.5t-92.5 -35.5t-78 35q-20 25 -20 59
q0 12 3 26z" />
    <glyph glyph-name="v" unicode="v" horiz-adv-x="720" 
d="M793 761q15 30 3 55q-12 24 -45 24q-44 0 -67 -45l-265 -525l-41 525q-4 45 -48 45q-33 0 -55.5 -23.5t-19.5 -55.5l56 -718q4 -46 49 -46h1q26 0 47 15q14 13 23 31z" />
    <glyph glyph-name="w" unicode="w" horiz-adv-x="1020" 
d="M976 780l-115 -540q-10 -49 -52.5 -84.5t-92.5 -35.5q-41 0 -70 26t-29 66q0 11 3 23l116 545q5 25 -8.5 42.5t-38.5 17.5q-26 0 -47 -17.5t-26 -42.5l-116 -545q-5 -22 -20 -44q-49 -71 -124 -71q-50 0 -78 35q-20 25 -20 59q0 12 3 26l115 540q5 25 -8.5 42.5
t-38.5 17.5q-26 0 -47 -17.5t-26 -42.5l-115 -540q-6 -28 -6 -53q0 -66 40 -117q55 -70 155 -70q111 0 197 82q54 -82 163 -82q101 0 185.5 70.5t105.5 169.5l115 540q5 25 -8.5 42.5t-38.5 17.5q-26 0 -47 -17.5t-26 -42.5z" />
    <glyph glyph-name="x" unicode="x" horiz-adv-x="750" 
d="M373 810q-10 25 -35 29q-51 8 -79 -44q-12 -22 -1 -49l135 -328l-275 -328q-22 -26 -19 -49q5 -43 46 -43q7 0 14 1q26 1 48 27l233 278l115 -278q10 -24 34 -27q52 -6 80 42q12 21 1 49l-135 328l275 328q22 26 19 49q-6 51 -61 44q-25 -3 -47 -29l-233 -279z" />
    <glyph glyph-name="y" unicode="y" 
d="M210 0q5 25 -8.5 42.5t-38.5 17.5q-26 0 -47 -17.5t-26.5 -43.5t-5.5 -51q0 -66 40 -117q55 -70 155 -70q99 0 184.5 71t106.5 168l166 780q5 25 -8.5 42.5t-38.5 17.5q-26 0 -47 -17.5t-26 -42.5l-91 -425q-10 -47 -52.5 -81t-91.5 -34q-48 0 -78 35q-19 27 -19 59
q0 13 3 26l89 420q5 25 -8.5 42.5t-38.5 17.5q-26 0 -47 -17.5t-26 -42.5l-89 -420q-6 -29 -6 -55q0 -65 39 -115q55 -70 156 -70q65 0 127 33l-33 -153q-10 -47 -54 -83t-91 -36q-42 0 -70 26.5t-28 67.5q0 12 3 25z" />
    <glyph glyph-name="z" unicode="z" horiz-adv-x="669" 
d="M150 0h367q29 0 51.5 22t22.5 51q0 21 -13.5 34t-34.5 13h-275l461 630q14 20 16 37q2 25 -15.5 40.5t-42.5 12.5h-358q-29 0 -51.5 -22t-22.5 -51q0 -21 13.5 -34t34.5 -13h268l-462 -630q-14 -19 -15 -36q-3 -54 56 -54z" />
    <glyph glyph-name="FL007Bh" unicode="{" horiz-adv-x="390" 
d="M630 1080q29 0 51 22t22 51q0 21 -13.5 34t-34.5 13q-87 0 -176 -132q-93 -136 -130 -318l-21 -103l-81 -47q-46 -27 -46 -73q0 -31 20 -47l61 -48l-22 -102q-20 -93 -21 -175q-2 -167 61 -240q30 -35 74 -35q29 0 51.5 22t22.5 51q0 21 -13.5 34t-34.5 13q-38 0 -43 97
q-6 96 23 233l35 166l-55 44l74 43l35 167q27 130 77 233q46 97 84 97z" />
    <glyph glyph-name="FL007Ch" unicode="|" horiz-adv-x="299" 
d="M103 60q-5 -25 8.5 -42.5t38.5 -17.5q26 0 47 17.5t26 42.5l204 960q5 25 -8.5 42.5t-38.5 17.5q-26 0 -47 -17.5t-26 -42.5z" />
    <glyph glyph-name="FL007Dh" unicode="}" horiz-adv-x="390" 
d="M376 1080q37 0 43 -97q5 -96 -24 -233l-35 -167l56 -43l-75 -44l-35 -166q-29 -136 -76 -233t-84 -97q-29 0 -51.5 -22t-22.5 -51q0 -21 13.5 -34t34.5 -13q87 0 176.5 131.5t129.5 318.5l22 102l81 48q46 27 46 77q0 28 -20 43l-61 47l21 103q20 98 21 175
q2 167 -61 240q-31 35 -74 35q-29 0 -51.5 -22t-22.5 -51q0 -20 14 -33.5t35 -13.5z" />
    <glyph glyph-name="FL00A2h" unicode="&#xa2;" 
d="M548 742l8 38q5 25 -8.5 42.5t-38.5 17.5q-26 0 -47 -17.5t-26 -42.5l-8 -38q-65 -15 -123 -63q-86 -71 -107 -169l-38 -180q-6 -27 -6 -53q0 -63 37.5 -114.5t98.5 -66.5l-7 -36q-5 -25 8.5 -42.5t38.5 -17.5q26 0 47 17.5t26 42.5l8 37q64 15 122 63q86 71 107 170
q5 25 -8.5 42.5t-38.5 17.5t-46.5 -17.5t-26.5 -42.5q-10 -49 -54 -85q-13 -10 -28 -19l82 387q41 -30 41 -78q0 -12 -3 -25q-5 -25 9 -42.5t39 -17.5t46 17.5t26.5 43.5t5.5 50q0 63 -38 114t-98 67zM318 225q-41 26 -41 79q0 13 3 26l38 180q14 65 83 104z" />
    <glyph glyph-name="FL00A9h" unicode="&#xa9;" horiz-adv-x="1020" 
d="M196 452q0 -120 69 -208q97 -123 270 -123t322.5 123.5t185.5 295.5q9 45 9 88q0 120 -69 208q-97 123 -270 123t-322 -123q-69 -57 -118 -133q-77 -118 -77 -251zM323 680q62 97 162 156q104 63 215 63q149 0 233 -105q59 -76 59 -179q0 -114 -66 -216
q-65 -98 -163 -157q-104 -62 -216 -62q-151 0 -232 105q-59 75 -59 177q0 114 67 218zM846 450q5 25 -9 42.5t-39 17.5t-46 -17.5t-26 -42.5q-10 -49 -53 -84.5t-93 -35.5q-49 0 -77 35q-20 25 -20 59q0 12 3 26l38 180q10 49 53 84.5t92 35.5q41 0 69.5 -27.5t28.5 -68.5
q0 -11 -3 -24q-5 -25 8.5 -42.5t38.5 -17.5q26 0 47 17.5t26.5 43.5t5.5 50q0 66 -41 118q-56 71 -154 71q-99 0 -184.5 -71t-106.5 -169l-38 -180q-6 -28 -6 -53q0 -66 40 -117q55 -70 155 -70q101 0 185.5 70.5t105.5 169.5z" />
    <glyph glyph-name="FL00C5h" unicode="&#xc5;" 
d="M463 60q-5 -25 8.5 -42.5t38.5 -17.5q26 0 47 17.5t26 42.5l166 780q6 26 6 50q0 66 -42 119q-56 71 -153 71q-102 0 -186 -70t-105 -170l-166 -780q-5 -25 8.5 -42.5t38.5 -17.5q26 0 47 17.5t26 42.5l64 300h240zM552 480h-240l77 360q11 50 53.5 85t91.5 35
q50 0 76 -36q22 -25 22 -58q0 -13 -3 -26zM466 1195q0 -55 55 -77q20 -8 45 -8q54 0 99 36.5t45 88.5q0 39 -30 62t-69 23q-79 0 -124 -64q-21 -29 -21 -61zM528 1215q5 21 26 33t44 12q22 0 38.5 -12t11.5 -33t-25.5 -33t-43.5 -12q-22 0 -39 12t-12 33z" />
    <glyph glyph-name="FL00C6h" unicode="&#xc6;" horiz-adv-x="1020" 
d="M912 480q29 0 51.5 22t22.5 51q0 21 -13.5 34t-34.5 13h-240l76 360h300q29 0 51.5 22t22.5 51q0 21 -13.5 34t-34.5 13h-540q-102 0 -186 -70t-105 -170l-166 -780q-5 -25 8.5 -42.5t38.5 -17.5q26 0 47 17.5t26 42.5l89 420h240l-89 -420q-5 -25 8.5 -42.5t38.5 -17.5
h360q29 0 51.5 22t22.5 51q0 21 -13.5 34t-34.5 13h-300l76 360h240zM534 960h120l-76 -360h-240l51 240q11 50 53.5 85t91.5 35z" />
    <glyph glyph-name="FL00D8h" unicode="&#xd8;" 
d="M710 1045l-12 -19q-53 54 -138 54q-102 0 -186 -70t-105 -170l-128 -600q-9 -41 -6 -73l-50 -78q-20 -31 -15 -50q10 -39 50 -39q37 0 61 35l11 16q52 -51 138 -51q100 0 185 71t106 169l128 600q7 33 4 69l54 82q19 29 14 50q-10 39 -50 39q-39 0 -61 -35zM621 908
l-323 -493l91 425q11 50 53.5 85t91.5 35q29 0 47 -11q14 -8 35 -32q3 -4 5 -9zM501 240q-10 -49 -52.5 -84.5t-92.5 -35.5q-49 0 -78 35q-6 6 -9 14l321 491z" />
    <glyph glyph-name="FL00DFh" unicode="&#xdf;" 
d="M326 120q-29 0 -51.5 -22t-22.5 -51q0 -21 13.5 -34t34.5 -13h30q100 0 185 71t106 169l26 120q6 26 6 50q0 39 -14 70q-8 16 -37 60q96 64 121 180l26 120q6 26 6 50q0 66 -42 119q-56 71 -153 71h-180q-26 0 -47 -17.5t-26 -42.5l-230 -1080q-5 -25 8.5 -42.5
t38.5 -17.5q26 0 47 17.5t26 42.5l115 540h127q40 0 69 -36q22 -27 22 -60q0 -12 -3 -24l-26 -120q-11 -49 -53 -84.5t-92 -35.5h-30zM338 600l76 360h120q50 0 76 -36q22 -25 22 -58q0 -13 -3 -26l-26 -120q-10 -46 -51 -83t-87 -37h-127z" />
    <glyph glyph-name="FL00E5h" unicode="&#xe5;" 
d="M218 600q-5 -25 8.5 -42.5t38.5 -17.5q26 0 47 17.5t26 42.5q10 49 52.5 84.5t92.5 35.5q48 0 78 -35q20 -28 20 -60q0 -12 -3 -25l-26 -120h-120q-100 0 -185 -71t-106 -169q-6 -27 -6 -51q0 -66 41 -118q56 -71 154 -71q101 0 185.5 70.5t105.5 169.5l77 360q6 28 6 53
q0 66 -40 117q-55 70 -155 70t-185.5 -71t-105.5 -169zM501 240q-11 -49 -53 -84.5t-92 -35.5q-48 0 -77 36q-21 26 -21 59q0 64 57 110q43 35 92 35h120zM415 955q0 -55 55 -77q20 -8 45 -8q54 0 99 36.5t45 88.5q0 39 -30 62t-69 23q-79 0 -124 -64q-21 -29 -21 -61z
M477 975q5 21 26 33t44 12q22 0 38.5 -12t11.5 -33t-25.5 -33t-43.5 -12q-22 0 -39 12t-12 33z" />
    <glyph glyph-name="FL00E6h" unicode="&#xe6;" horiz-adv-x="1020" 
d="M981 240q5 25 -8.5 42.5t-38.5 17.5t-46.5 -17.5t-26.5 -42.5q-10 -49 -53 -84.5t-92 -35.5q-50 0 -78 35q-21 27 -21 57q0 10 2 20l28 128h120q100 0 185 71t106 169q6 26 6 50q0 66 -42 119q-56 71 -153 71q-101 0 -186 -71l-12 -10q-2 4 -7 11q-55 70 -155 70
t-185.5 -71t-105.5 -169q-5 -25 8.5 -42.5t38.5 -17.5q26 0 47 17.5t26 42.5q10 49 52.5 84.5t92.5 35.5t78 -35q20 -25 20 -57q0 -11 -2 -21l-27 -127h-120q-100 0 -185 -71t-106 -169q-6 -27 -6 -51q0 -66 41 -118q56 -71 154 -71q99 0 185 71q6 5 11 10q6 -8 9 -11
q55 -70 155 -70q99 0 184.5 71t106.5 169zM698 600q11 50 53 85t92 35q41 0 69 -28t28 -68q0 -62 -57 -109q-42 -35 -91 -35h-120zM501 240q-11 -49 -53 -84.5t-92 -35.5q-48 0 -77 36q-21 26 -21 59q0 64 57 110q43 35 92 35h120z" />
    <glyph glyph-name="FL00F8h" unicode="&#xf8;" 
d="M652 803l-10 -12q-54 49 -133 49q-102 0 -186 -70t-105 -170l-77 -360q-10 -46 -4 -85l-52 -66q-21 -27 -15 -50q10 -39 50 -39q33 0 61 35l12 15q51 -50 137 -50q100 0 185 71t106 169l77 360q9 44 1 88l49 61q22 27 15 50q-11 39 -51 39q-31 0 -60 -35zM501 240
q-10 -49 -52.5 -84.5t-92.5 -35.5q-49 0 -78 35q-1 0 -1 1l281 354zM559 685l-278 -349l57 264q11 50 53 85t92 35q47 0 76 -35z" />
    <glyph glyph-name="FL2018h" unicode="&#x2018;" horiz-adv-x="360" 
d="M282 902l-13 -60q-8 -38 12 -64t59 -26q38 0 69.5 26.5t39.5 63.5t-11 63t-57 27q16 25 67 48l22 100q-102 -15 -160 -113q-22 -38 -28 -65z" />
    <glyph glyph-name="FL2019h" unicode="&#x2019;" horiz-adv-x="359" 
d="M468 930l12 60q8 38 -11.5 64t-58.5 26t-70.5 -26t-39.5 -64q-8 -36 11.5 -62.5t56.5 -27.5q-14 -24 -67 -48l-21 -100q68 11 119 61q47 47 69 117z" />
    <glyph glyph-name="FL201Ch" unicode="&#x201c;" horiz-adv-x="630" 
d="M288 930q-3 -17 -3 -33q0 -44 23 -85q28 -49 92 -60l21 100q-42 23 -47 48q38 1 68 27t38 63q8 38 -11.5 64t-58.5 26q-38 0 -70.5 -26.5t-39.5 -63.5zM732 902q2 15 2 30q0 128 -114 148l-22 -100q44 -23 47 -48q-37 -1 -67.5 -27t-38.5 -63q-8 -38 12 -64t59 -26
q38 0 69.5 26.5t39.5 63.5z" />
    <glyph glyph-name="FL201Dh" unicode="&#x201d;" horiz-adv-x="630" 
d="M738 930l12 60q8 38 -11.5 64t-58.5 26t-70.5 -26t-39.5 -64q-8 -36 11.5 -62.5t56.5 -27.5q-14 -24 -67 -48l-21 -100q68 11 119 61q47 47 69 117zM282 902l-13 -60q-8 -38 12 -64t59 -26q38 0 69.5 26.5t39.5 63.5t-11 63t-57 27q16 25 67 48l22 100
q-102 -15 -160 -113q-22 -38 -28 -65z" />
    <glyph glyph-name="FL2030h" unicode="&#x2030;" horiz-adv-x="1320" 
d="M804 1044l-575 -954q-19 -31 -14 -50q10 -39 49 -39q36 0 62 35l574 954q19 32 15 50q-10 39 -51 39q-34 0 -60 -35zM277 863q0 -64 41.5 -103.5t104.5 -39.5q86 0 154 66.5t68 151.5q0 63 -41.5 102.5t-103.5 39.5q-56 0 -107.5 -30.5t-82.5 -79.5q-33 -52 -33 -107z
M904 143q0 -64 41.5 -103.5t104.5 -39.5q86 0 154 66.5t68 151.5q0 63 -41.5 102.5t-103.5 39.5q-56 0 -107.5 -30.5t-82.5 -79.5q-33 -52 -33 -107zM484 143q0 -64 41.5 -103.5t104.5 -39.5q86 0 154 66.5t68 151.5q0 63 -41.5 102.5t-103.5 39.5q-56 0 -107.5 -30.5
t-82.5 -79.5q-33 -52 -33 -107zM474 960q21 0 34.5 -13t13.5 -34q0 -29 -22 -51t-51 -22q-21 0 -35 13.5t-14 33.5q0 29 22.5 51t51.5 22zM1101 240q21 0 34.5 -13t13.5 -34q0 -29 -22 -51t-51 -22q-21 0 -35 13.5t-14 33.5q0 29 22.5 51t51.5 22zM681 240q21 0 34.5 -13
t13.5 -34q0 -29 -22 -51t-51 -22q-21 0 -35 13.5t-14 33.5q0 29 22.5 51t51.5 22z" />
    <glyph glyph-name="L" horiz-adv-x="1000" 
 />
  </font>
</defs>
</svg>
