<?xml version="1.0" standalone="no"?>
<!DOCTYPE svg PUBLIC "-//W3C//DTD SVG 1.1//EN" "http://www.w3.org/Graphics/SVG/1.1/DTD/svg11.dtd" >
<svg>
<metadata>
Created by FontForge 20110222 at Fri May 17 19:01:21 2013
 By Orthosie Webhosting
Copyright (c) 1993 by Thomas G. Goss 
</metadata>
<defs>
<font id="Child'sPlayNormal" horiz-adv-x="750" >
  <font-face 
    font-family="Child'sPlayNormal"
    font-weight="400"
    font-stretch="normal"
    units-per-em="1000"
    panose-1="0 0 0 0 0 0 0 0 0 0"
    ascent="800"
    descent="-200"
    x-height="355"
    cap-height="741"
    bbox="-4 -240 930 828"
    underline-thickness="20"
    underline-position="-123"
    unicode-range="U+0020-00B6"
  />
<missing-glyph horiz-adv-x="800" 
d="M50 0v800h700v-800h-700zM700 50v700h-600v-700h600z" />
    <glyph glyph-name=".notdef" horiz-adv-x="800" 
d="M50 0v800h700v-800h-700zM700 50v700h-600v-700h600z" />
    <glyph glyph-name=".null" horiz-adv-x="0" 
 />
    <glyph glyph-name="nonmarkingreturn" horiz-adv-x="500" 
 />
    <glyph glyph-name="space" unicode=" " horiz-adv-x="500" 
 />
    <glyph glyph-name="exclam" unicode="!" horiz-adv-x="330" 
d="M224 700q-9 -48 -21 -115t-20 -126q-1 -9 -9 -162q-3 -56 -42 -56q-17 0 -38 18t-21 33v104q0 11 9.5 66.5t24.5 125.5q4 47 9 95q14 75 49 75q19 0 36 -13q23 -17 23 -45zM230 160q0 -51 -38 -86q-34 -31 -74 -31q-31 0 -54.5 24.5t-23.5 43.5q0 10 32 42q39 39 72 39
q40 0 63 -8t23 -24z" />
    <glyph glyph-name="quotedbl" unicode="&#x22;" horiz-adv-x="375" 
d="M326 763q-4 -62 -9 -93q-15 -94 -47 -94q-15 0 -27 47t-12 73q0 45 8 72q13 42 43 42q18 0 31 -17.5t13 -29.5zM179 762q-6 -58 -11 -87q-17 -87 -42 -87q-13 0 -30.5 41.5t-17.5 54.5q6 42 11 63q17 63 46 63q13 0 28.5 -16.5t15.5 -31.5z" />
    <glyph glyph-name="numbersign" unicode="#" 
d="M719 428q0 -16 -22.5 -24t-113.5 -21q-18 -3 -32.5 -4t-27.5 -1q-12 0 -15.5 0.5t-7.5 2.5q1 -4 -8.5 -20t-35.5 -47q56 -19 91 -46.5t35 -66.5q0 -27 -25 -27q-20 0 -41 36t-78 36q-22 0 -78 -94t-87 -94q-14 0 -24 11t-10 25q0 10 23 34q61 65 82 110q-6 1 -17 1
q-30 -3 -59.5 -5t-77.5 -2q-14 0 -50.5 -67.5t-50.5 -67.5q-19 0 -30 20q-3 6 -7 20q0 8 16.5 38.5t33.5 51.5v11q-26 0 -55 12t-29 28q0 18 8 25t24 7q10 0 37 -5t40 -5q26 0 37 14l90 152q-10 9 -48 9q-10 0 -32.5 -1t-33.5 -1q-31 0 -49 7t-18 25q0 10 47 23.5t91 13.5
q16 -5 26 -7q30 -7 49 -7q11 0 53.5 79.5t58.5 79.5q12 0 24.5 -13.5t12.5 -32.5q0 -14 -42 -75q-25 -36 -34 -64q50 -31 76 -44.5t32 -13.5q2 0 80 105t93 105q14 0 21.5 -10t7.5 -26q0 -18 -16 -39q-50 -66 -99 -131q9 -7 12 -7q16 4 35 7q41 8 64 8q22 0 38 -6t16 -22z
M427 390q-90 54 -99 54q-4 0 -34 -44q-35 -51 -69 -101h40q15 5 24.5 6t24.5 1q10 0 17.5 -0.5t13.5 -0.5q24 0 40 14q21 19 42 71z" />
    <glyph glyph-name="dollar" unicode="$" horiz-adv-x="666" 
d="M605 634q0 -19 -18 -19q-6 0 -27 4t-34 4q-23 0 -43 -10t-37 -38q-13 -21 -31 -73q-21 -60 -21 -85q15 -12 23 -22q52 -60 52 -140q0 -30 -28.5 -52.5t-69.5 -31.5q-17 -5 -37 -5q-18 0 -20 -1t-8 -13q-1 -2 -31 -60q-10 -19 -30 -58q-3 -13 -7 -27t-19 -14t-28.5 7
t-13.5 18q0 7 28 73t28 71q0 7 -18.5 14t-25.5 7q-16 0 -33 -38.5t-34 -78.5q-20 0 -31.5 10.5t-11.5 26.5q0 22 22 64l22 42q0 9 -48.5 31.5t-48.5 47.5q0 8 21 19q12 6 18 6q8 0 51 -35q20 -16 33 -16q8 0 13 16q9 32 18 62q9 19 13 30q14 35 14 48q0 9 -39 34t-39 60
q0 60 92.5 107t92.5 81l19 38q20 38 26 38q18 0 33 -12.5t15 -35.5q0 -5 -4 -18t-9 -29l5 -3q40 0 60 47t47 47q12 0 24.5 -11t12.5 -28q0 -7 -8 -21t-17 -25v-9q24 -4 48 -7q39 -10 39 -37zM397 613v12q-54 -27 -77 -71q-2 -4 -30 -85l43 -10q12 42 24 85q15 39 40 69z
M245 556q-16 -8 -30.5 -25.5t-14.5 -32.5q0 -3 10 -8l12 -6q3 4 7 20q8 29 16 52zM397 268q0 4 -5 22q-8 28 -15 50q-5 -18 -21 -48q-32 -60 -34 -65q50 12 68 31q3 3 7 10zM322 400q-9 2 -19.5 4t-16.5 2q-11 0 -15 -13q-4 -19 -6 -28q-14 -43 -22 -70q-15 -47 -21 -61
q10 -5 11 -7h17q2 8 41 88q19 39 31 85z" />
    <glyph glyph-name="percent" unicode="%" horiz-adv-x="630" 
d="M319 613q0 -86 -25 -118q-17 -22 -49 -22q-8 0 -16 0.5t-10 -0.5q-13 -5 -26 -9t-27 -4q-26 0 -58 24q-41 31 -41 79q0 40 46 73.5t93 33.5q18 0 22.5 -4t9.5 -7q3 -1 17.5 2.5t22.5 3.5q19 0 28 -9q13 -13 13 -43zM587 670q0 -18 -17 -39q-62 -62 -129 -138l-158 -165
q-35 -35 -74.5 -96t-51.5 -80q-58 -96 -69 -113q-28 -44 -44 -44q-8 0 -18 9q-13 12 -13 27q6 13 12 23q33 60 96 156q39 60 69 97q22 27 66 75q57 62 112 119q26 27 40 43q52 61 105 122q9 14 13 20q14 21 29 21q17 0 24.5 -10.5t7.5 -26.5zM444 168q0 -40 -39.5 -64.5
t-100.5 -24.5q-32 0 -57 16t-25 44t50 66.5t91 38.5q18 0 49.5 -28.5t31.5 -47.5zM253 561v40q-3 1 -11.5 3t-12.5 2q-17 0 -58 -17.5t-41 -36.5q0 -13 12.5 -22t23.5 -9q29 0 45 5q29 9 42 35zM370 169l-3 7h-13q-16 -4 -27 -8t-31 -26q32 0 44.5 5.5t29.5 21.5z" />
    <glyph glyph-name="ampersand" unicode="&#x26;" horiz-adv-x="800" 
d="M744 260q0 -30 -25 -43t-60 -13q-36 0 -129.5 22.5t-125.5 39.5q-38 -52 -76 -103q-60 -44 -149 -44q-40 0 -98 43q-64 47 -64 90q0 71 50 129q43 50 92 61q30 6 54 6q19 0 46 -4t34 -4q19 0 27.5 14t8.5 54q0 38 -7.5 62.5t-15.5 48.5q0 9 21 38.5t31 29.5q49 0 70 -46
q17 -37 17 -102q0 -31 -4.5 -66.5t-8.5 -69.5q0 -39 80 -60q75 -16 150 -31q82 -19 82 -52zM290 317q-5 6 -6 11q-13 0 -34 3t-34 3q-37 0 -62 -34q-12 -16 -23 -45q15 -6 32 -16q13 -7 19 -7q30 0 69 34t39 51z" />
    <glyph glyph-name="quotesingle" unicode="'" horiz-adv-x="200" 
d="M198 737q0 -35 -74.5 -104.5t-99.5 -69.5q-18 0 -18 21q2 14 4 25.5t15 39.5q36 76 39.5 88t6.5 20q11 27 27 30.5t27 3.5q31 0 52 -17t21 -37z" />
    <glyph glyph-name="parenleft" unicode="(" horiz-adv-x="550" 
d="M456 702q0 -45 -31 -68q-90 -56 -179 -112q-50 -44 -77 -146q-19 -72 -19 -124q0 -31 84 -89t84 -97q0 -29 -3 -43q-8 -35 -33 -35q-93 0 -196 97q-80 75 -80 174q0 92 54.5 213t137.5 203q95 93 192 93q22 0 40 -12q26 -18 26 -54z" />
    <glyph glyph-name="parenright" unicode=")" horiz-adv-x="500" 
d="M445 428q0 -111 -103 -261q-111 -161 -216 -161q-34 0 -46 7q-20 12 -20 47q0 40 57 97q101 101 108 110q58 75 58 157q0 89 -53 131q-50 27 -100 55q-54 32 -54 95q0 30 28.5 57.5t40.5 27.5q86 0 189 -113q111 -122 111 -249z" />
    <glyph glyph-name="asterisk" unicode="*" horiz-adv-x="810" 
d="M737 375q0 -57 -70 -71q-54 -9 -107 -18q45 -38 57 -50q19 -19 19 -54q0 -17 -11 -38.5t-27 -21.5q-25 0 -67 28q-122 82 -129 85q-29 -41 -36 -130.5t-40 -89.5q-42 0 -58 30q-12 22 -12 68q0 20 1 43.5t1 26.5q0 14 -1 20q-40 -45 -48.5 -53.5t-37.5 -8.5q-24 0 -39 23
t-15 40q0 21 31 55q22 24 33 46q-86 0 -122.5 19t-36.5 54q0 38 28 51q18 8 57 8q11 0 26.5 0.5t15.5 10.5q0 13 -50.5 62.5t-50.5 88.5q0 26 25 45q20 15 32 15q30 0 73 -47q2 -2 76 -94q45 -56 72 -68q0 88 11 146q20 107 71 107q35 0 48 -20q10 -15 10 -45
q0 -12 -0.5 -21.5t-0.5 -15.5q48 0 64 -9q24 -13 24 -56q0 -45 -30 -75q-25 -23 -39 -36q12 -4 151 -17q102 -10 102 -33z" />
    <glyph glyph-name="plus" unicode="+" 
d="M716 326q0 -36 -8 -45q-13 -15 -59 -15q-8 0 -99 25t-97 25q-27 0 -32 -123t-47 -123q-44 0 -62.5 24t-18.5 66q0 24 12 104q6 40 6 59q-37 11 -167 12.5t-130 85.5q0 31 16 42.5t49 11.5q17 0 75 -6t99 -6q16 0 28.5 -0.5t20.5 -0.5q23 0 29.5 8t6.5 40q0 15 -1 56
t-1 56q11 19 18 28q21 28 39 28q46 0 65 -27q15 -22 15 -66q0 -19 -4 -56t-4 -50q0 -34 17 -42q29 -12 117 -25q117 -17 117 -86z" />
    <glyph glyph-name="comma" unicode="," horiz-adv-x="364" 
d="M266 43q-26 -61 -87.5 -130.5t-87.5 -69.5q-12 0 -29.5 17.5t-17.5 30.5q0 9 70 48q44 25 79 75l-68 42q-26 24 -24 52q0 43 23 67t61 24q33 0 67 -19q11 -7 19.5 -26.5t8.5 -47.5q0 -15 -3 -30.5t-11 -32.5z" />
    <glyph glyph-name="hyphen" unicode="-" horiz-adv-x="700" 
d="M621 364q0 -22 -11.5 -30t-29.5 -8q-16 1 -21 1q-41 8 -104 13.5t-159 5.5h-123q-44 0 -73 16q-35 20 -35 58q0 24 13.5 34.5t35.5 10.5q24 0 38 -7.5t26 -7.5h212l197 -20q13 -6 23.5 -26t10.5 -40z" />
    <glyph glyph-name="period" unicode="." horiz-adv-x="275" 
d="M222 102q2 -7 2 -20q0 -38 -27 -66t-65 -28q-46 0 -76 30q-18 19 -38 60q-7 16 34 56t50 40q55 0 80 -15q32 -19 40 -57z" />
    <glyph glyph-name="slash" unicode="/" 
d="M716 679q0 -34 -34 -73q-17 -19 -102 -99q-96 -90 -174 -177q-49 -54 -97 -102q-67 -65 -113 -110q-15 -15 -61 -72q-22 -28 -44 -28q-16 0 -53 36q-22 22 -22 35q0 28 69 102q45 48 137 134q86 80 100 98q62 79 108 123q96 92 101 97q29 34 44 50q47 50 60 50
q25 0 55 -28q26 -25 26 -36z" />
    <glyph glyph-name="zero" unicode="0" 
d="M690 356q0 -184 -107 -273q-88 -74 -235 -74q-140 0 -236 77q-107 86 -107 232q0 114 92 232q107 137 251 137q192 0 270 -80q72 -74 72 -251zM560 393q1 9 1 17q0 48 -27 78q-45 50 -156 50q-88 0 -154 -66q-87 -88 -87 -158q0 -80 73 -126q59 -37 129 -37q95 0 155 60
q66 66 66 182z" />
    <glyph glyph-name="one" unicode="1" horiz-adv-x="600" 
d="M438 49q0 -23 -10.5 -32.5t-28.5 -9.5q-13 0 -75 12q-31 6 -47 6q-12 0 -55 -11t-66 -11q-38 0 -81.5 23.5t-43.5 41.5q0 39 94.5 55t94.5 90q0 91 5 161.5t10 88.5l-7 60q-35 -43 -47 -58q-21 -25 -52 -25q-23 0 -53 21q-36 25 -36 54q0 40 73 112q77 76 133 76
q2 0 35 15.5t44 15.5q50 0 74 -27.5t24 -70.5q-1 0 -13 -63q-15 -81 -25 -167q-14 -125 -14 -234q0 -52 33.5 -69.5t33.5 -53.5z" />
    <glyph glyph-name="two" unicode="2" 
d="M687 62q0 -25 -28 -34q-18 -6 -51 -6h-18q-97 0 -173 23q-69 25 -138 51q-19 -12 -32 -17q-41 -17 -82 -17q-26 0 -60 25t-34 45q0 32 49 56q134 66 153 94q56 82 74 130t18 88q0 46 -21 86q-31 58 -92 58q-36 0 -93 -45q-28 -22 -50 -22q-31 0 -64 18t-33 39q0 42 78 86
t139 44q114 0 192 -71q85 -78 85 -209q0 -104 -37 -169q-42 -60 -83 -119q0 -31 150.5 -47t150.5 -87z" />
    <glyph glyph-name="three" unicode="3" horiz-adv-x="600" 
d="M521 529q0 -32 -28 -66q-33 -40 -96 -76q5 -10 32 -45q40 -51 40 -148q0 -82 -73 -131q-64 -43 -143 -43q-52 0 -113 24q-70 28 -70 62q0 22 23.5 46.5t47.5 24.5q3 0 30 -16t72 -16q44 0 63 21.5t19 63.5q0 78 -75.5 108t-75.5 49q0 57 98.5 85t98.5 76q0 34 -30.5 51.5
t-83.5 17.5q-46 0 -106 -40q-29 -19 -52 -19q-30 7 -44 13q-44 18 -44 43q0 33 77 79q83 49 152 49q111 0 199 -74q82 -69 82 -139z" />
    <glyph glyph-name="four" unicode="4" horiz-adv-x="800" 
d="M736 334q0 -21 -10.5 -28t-32.5 -7q-12 0 -32 1.5t-21 1.5q-35 0 -56 -13q-28 -17 -39 -62q-3 -11 -5 -29t-2 -29q0 -28 5 -55.5t11 -58.5q0 -16 -11 -24.5t-39 -8.5q-46 0 -83 40q-43 46 -43 114q0 34 12 73v22q-13 4 -26.5 5t-34.5 1q-23 0 -75.5 -3.5t-74.5 -3.5
q-74 0 -110 22q-47 29 -47 101l8 216q0 63 24 102q19 31 50 31q34 0 64.5 -44t30.5 -111q0 -45 -14 -88v-81h235q0 91 -2.5 116.5t-4.5 41.5q0 20 28.5 42t40.5 22q63 0 85 -52q15 -35 15 -112v-36q84 0 116 -19q38 -23 38 -87z" />
    <glyph glyph-name="five" unicode="5" horiz-adv-x="800" 
d="M727 615q0 -19 -2 -31.5t-11 -19.5l-415 -36q-3 -6 -4.5 -11.5t-2.5 -9.5q106 -39 192 -132t86 -164q0 -108 -85 -145q-51 -22 -168 -22q-112 0 -212 71q-85 60 -85 100q0 4 33.5 30t38.5 26q15 0 77 -46t123 -46q48 0 78 7q51 12 51 44q0 10 -8 19l-28 30
q-28 35 -44.5 55.5t-20.5 22.5q-66 8 -125 23q-117 31 -117 89q0 4 3 17.5t59 123.5q33 23 90.5 35t132.5 12q58 14 131.5 25t125.5 11t79.5 -21t27.5 -57z" />
    <glyph glyph-name="six" unicode="6" horiz-adv-x="640" 
d="M532 231q0 -59 -66 -117q-75 -66 -176 -66q-134 0 -197 69q-53 58 -53 157q0 51 20 93q15 32 63.5 89t98.5 116q33 39 105 92q66 49 74 49q23 0 49.5 -22.5t26.5 -42.5q0 -31 -38 -60q-48 -34 -96 -67q-71 -55 -128 -134q6 -15 10 -22q15 -23 37 -23q35 15 68 26
q41 14 67 14q42 0 83 -35q52 -44 52 -116zM396 288q-54 -34 -95 -47q-20 -6 -42 -72l90 -35q19 30 22 41q4 31 25 113z" />
    <glyph glyph-name="seven" unicode="7" horiz-adv-x="650" 
d="M583 537q0 -51 -71 -172q-23 -40 -72 -111q-81 -159 -100 -196q-26 -50 -63 -50q-26 0 -58 21.5t-32 40.5q0 28 55 129q22 41 107 187q63 109 72 135l-6 3q-8 4 -11 4q-80 -18 -122 -26q-126 -26 -147 -26q-41 0 -78 18q-46 22 -46 60q0 43 47 48q127 14 161 23l234 45
q52 0 94 -41q36 -36 36 -92z" />
    <glyph glyph-name="eight" unicode="8" horiz-adv-x="600" 
d="M518 506q0 -62 -46.5 -114.5t-46.5 -67.5q13 -22 24 -57.5t11 -81.5q0 -68 -78 -120q-66 -44 -117 -44q-61 0 -114 43.5t-53 81.5q0 43 34.5 108.5t85.5 102.5q-66 40 -131 80q-61 46 -61 109q0 32 43 72q56 53 66 71q22 0 60 12t67 12q82 0 176 -67q80 -57 80 -140z
M391 514q0 16 -42.5 44t-54.5 28q-28 0 -63 -17q-2 -1 -82 -43q68 -31 120 -59q19 -10 45 -26q24 0 50.5 27.5t26.5 45.5zM334 214q0 9 -4 20q-10 24 -19 50q-36 -36 -58 -77q-10 -18 -19 -36l21 -21l54 30q25 16 25 34z" />
    <glyph glyph-name="nine" unicode="9" horiz-adv-x="600" 
d="M465 488l-6 -162q0 -64 -14 -128q-5 -23 -16 -56q1 -16 2 -44t1 -40q0 -21 -3 -27q-6 -11 -22 -17.5t-34 -6.5q-47 0 -66 41q-13 29 -13 85l37 211v79l-12 12q-21 -14 -35 -18.5t-31 -4.5h-26q-92 0 -154 33q-74 39 -74 110q0 65 81.5 120.5t179.5 55.5q32 0 51 -14
l32 -36q9 1 13 1q55 0 82 -50.5t27 -143.5zM300 589v37q-42 -12 -83 -23q-58 -20 -82 -57l83 -12q29 0 42 7q18 10 40 48z" />
    <glyph glyph-name="colon" unicode=":" horiz-adv-x="350" 
d="M293 580q0 -36 -40 -82q-44 -50 -89 -50q-25 0 -49.5 23.5t-24.5 54.5q0 18 48 63q52 49 86 49q39 0 54 -12t15 -46zM221 111q0 -8 -37 -48q-41 -44 -58 -44q-29 0 -64 19q-43 23 -43 55q0 23 38.5 66.5t71.5 43.5q52 0 74 -27q18 -22 18 -65z" />
    <glyph glyph-name="semicolon" unicode=";" horiz-adv-x="425" 
d="M350 545q0 -44 -30.5 -78.5t-60.5 -34.5q-19 0 -51 31t-32 56q0 44 37 76q32 28 79 28q40 0 52 -27q6 -14 6 -51zM295 23q0 -58 -42 -124q-47 -75 -102 -75q-45 0 -100 37t-55 66q0 14 23.5 38.5t42.5 24.5q5 0 29 -15t34 -15q40 0 49 78t67 78q18 0 36 -27t18 -66z" />
    <glyph glyph-name="less" unicode="&#x3c;" horiz-adv-x="650" 
d="M576 612q0 -45 -64 -80q-11 -6 -157 -66q-118 -48 -194 -101q20 -29 91 -67q99 -53 113 -63q55 -39 55 -82q-7 -11 -11 -16q-15 -17 -28 -17q-7 0 -88 45q-66 37 -108 62q-47 30 -93 60q-68 51 -68 92q0 24 33 46q47 31 207 106q104 49 179 85.5t94 36.5q23 0 31 -11.5
t8 -29.5z" />
    <glyph glyph-name="equal" unicode="=" 
d="M655 451q0 -39 -18 -54q-12 -10 -31 -10q-33 6 -90.5 11.5t-125.5 5.5h-278q-35 0 -63 30q-24 26 -24 45q0 29 28.5 44t90.5 15q72 -7 146.5 -12.5t128.5 -5.5h29q79 0 128 -10q79 -16 79 -59zM667 211q0 -31 -10 -43t-36 -12q-10 0 -172.5 17t-163.5 17
q-22 -7 -45 -11.5t-39 -4.5q-33 0 -58.5 23.5t-25.5 51.5q0 32 27 44.5t72 12.5q44 0 152.5 -7.5t165.5 -15.5q6 -1 20 -1h18.5t19.5 1q35 0 52 -12q23 -16 23 -60z" />
    <glyph glyph-name="greater" unicode="&#x3e;" horiz-adv-x="650" 
d="M586 389q0 -27 -33 -49q-101 -50 -181 -101q-56 -36 -149 -107q-56 -43 -82 -43q-14 0 -32 19t-18 34q0 30 45.5 60t95.5 62l175 125q-34 10 -96 35q-52 21 -179 85q-34 12 -67 24q-29 15 -29 66q0 31 16 43q10 7 27 7q3 0 130 -68q82 -44 147 -68q141 -42 177 -55
q53 -19 53 -69z" />
    <glyph glyph-name="question" unicode="?" horiz-adv-x="500" 
d="M422 564q0 -48 -28 -89q-70 -101 -73 -125q-11 -75 -18 -106q-20 -91 -42 -91q-30 0 -42.5 23t-12.5 56q0 41 9 68q6 16 13 32q7 24 7 42.5t2 24.5q11 40 56 98q41 53 41 82q0 25 -24 49q-31 31 -82 31q-67 0 -108.5 -35.5t-56.5 -35.5q-20 0 -35.5 16.5t-15.5 27.5
q0 27 60 69q74 51 165 51q80 0 135 -63q50 -57 50 -125zM304 34q0 -16 -15 -27.5t-28 -11.5q-21 0 -46 14q-31 17 -31 38q13 16 21 24q26 25 47 25q20 0 36 -17t16 -45z" />
    <glyph glyph-name="at" unicode="@" 
d="M685 475q0 -27 -28 -70q-15 -22 -29 -43q-40 -61 -73 -88q-45 -37 -101 -37q-20 0 -31 4q-18 7 -33 27q-7 11 -9.5 20.5t-2.5 21.5q1 11 1 14q0 8 -6 8q-4 0 -23 -8.5t-29 -8.5q-16 0 -35.5 21.5t-19.5 42.5q0 32 36 73q40 46 82 46q36 0 67 -9q45 -13 45 -39
q0 -10 -8.5 -16.5t-20.5 -6.5q-10 0 -17 4q-2 -10 -2 -12q1 -10 1 -16q-6 -18 -11.5 -38t-5.5 -44q0 -14 3.5 -22.5t14.5 -8.5q13 1 21 3q51 16 103 87l46 64q10 17 10 41q0 35 -30 90q-41 74 -99 74q-67 0 -136 -30t-116 -73q-76 -70 -103 -105q-55 -71 -55 -139
q0 -55 54 -102q51 -44 152 -79q34 -12 81.5 -22.5t91.5 -10.5q54 0 98 13q19 7 39 14q3 0 5.5 -1t5.5 -4q0 -44 -55 -60q-34 -10 -89 -10q-156 0 -281 65q-150 78 -150 210q0 59 41 129q45 76 134 144q75 57 135 81q68 27 151 27q29 0 52 -6t33 -12q32 -42 48 -68
q48 -79 48 -135zM393 435h-21q-17 -16 -26 -28t-19 -30h6q10 13 33 32.5t27 25.5z" />
    <glyph glyph-name="A" unicode="A" horiz-adv-x="700" 
d="M614 42l-20 -20q-11 -8 -36 -8q-79 0 -90 131q-4 63 -7 126q-7 3 -11.5 6t-9.5 3q-67 -15 -101 -23q-103 -26 -113 -41q-16 -22 -36 -82q-31 -90 -81 -90q-25 0 -44 16q-27 23 -27 44q0 30 52 130q39 75 97 172q26 43 53 87l10 36q0 35 78 149q85 124 132 124
q51 0 81 -79q18 -93 37 -186q9 -20 13 -30q13 -32 13 -39q-2 -37 -4 -81.5t-2 -86.5q0 -63 8 -167q2 -34 8 -91zM468 474l-46 117q-33 -68 -38 -87q-8 -30 -39 -89q19 3 34 8t23 5q11 0 43 -9q8 14 13 25q10 22 10 30z" />
    <glyph glyph-name="B" unicode="B" 
d="M702 235q0 -95 -138.5 -165.5t-318.5 -70.5q-55 0 -106 21q-74 30 -79 50q-4 7 -4 19q0 11 7 47q4 19 3 28q-7 34 -13 69q-5 57 -5 165q-14 35 -25 77.5t-11 78.5q0 56 70.5 96t177.5 40q95 0 167 -52q77 -56 87 -144q5 -43 9 -62q1 -5 3 -14q69 -19 120 -65
q56 -51 56 -118zM579 246q0 51 -90 69q-45 9 -117 9q-15 -4 -24 -6q-28 -6 -51 -6q-30 0 -46 9q-21 12 -21 38q0 35 83 71t83 56q0 33 -44 62t-95 29q-49 0 -71 -6q-44 -12 -44 -49q0 -42 9 -72q10 -25 21 -50q-1 -27 -1.5 -57t-0.5 -43q0 -87 3.5 -125.5t10.5 -52.5
q4 -9 32 -15.5t41 -6.5q100 0 211 52.5t111 93.5z" />
    <glyph glyph-name="C" unicode="C" 
d="M712 116q0 -32 -104 -78t-195 -46q-68 0 -140 21q-100 29 -160 91q-78 80 -78 202q0 86 46 186q57 124 107 168q32 28 110 64q92 42 144 42t91 -17q49 -21 49 -60q0 -44 -67 -53q-104 -14 -189 -89q-81 -70 -89 -79q-57 -62 -57 -194q0 -78 72 -115q60 -31 158 -31
q84 0 144 36.5t73 36.5q30 0 57.5 -30.5t27.5 -54.5z" />
    <glyph glyph-name="D" unicode="D" horiz-adv-x="700" 
d="M622 308q0 -171 -107 -248q-86 -62 -242 -62q-82 0 -117 23.5t-35 83.5q0 13 1 20l-79 523q9 27 38 63q22 27 38 27q238 0 372 -118q131 -115 131 -312zM490 315q0 127 -71 207q-74 83 -200 83q-18 0 -24 -7t-6 -20q0 -78 15 -175q8 -50 30 -159q19 -93 23 -133h26
q66 26 132 53q75 44 75 151z" />
    <glyph glyph-name="E" unicode="E" horiz-adv-x="700" 
d="M658 735q0 -30 -110 -53q-55 -11 -208 -30q-116 -14 -123 -24q-2 -3 -5 -26.5t-3 -50.5q0 -20 3 -55t5 -52q28 -4 45 -9q5 -1 10 -4q37 13 84.5 24t83.5 11q49 0 86 -25.5t37 -55.5q0 -32 -169 -67q-140 -29 -184 -29q0 -31 -2.5 -39.5t-5.5 -11.5q0 -45 53 -68
q47 -20 124 -20q72 0 125 8l98 20q12 0 12 -16q0 -40 -44 -79q-65 -57 -192 -57q-82 0 -139 21l-44 22q-83 26 -106 43.5t-23 49.5q0 7 2 32t2 44q0 168 6 301q2 42 1 45q-9 48 -17 65q-2 6 -6 9q0 39 115 78q87 29 229 54q121 21 165 21q27 0 58 -20q37 -24 37 -56z" />
    <glyph glyph-name="F" unicode="F" horiz-adv-x="700" 
d="M610 721q0 -50 -90 -62q-60 -6 -120 -11q-36 -12 -68 -21q-55 -15 -105 -15q-23 0 -52 3q-8 -28 -10.5 -71t-2.5 -134l13 -13q33 28 141 59q120 34 215 34q35 0 51 -10.5t16 -38.5q0 -36 -66 -56q-91 -21 -138 -34q-80 -23 -110 -30.5t-48 -7.5q-12 0 -28 3.5t-33 7.5
q-7 -26 -7 -40v-25q0 -72 10.5 -112t22.5 -80q0 -18 -15 -28.5t-31 -10.5q-63 0 -90.5 68t-27.5 188v152q0 91 -5 132t-17 71q0 9 19 30q25 27 52 27q11 0 23 -7q4 -3 26 -20q40 37 130 67q114 38 243 38q51 0 76.5 -9.5t25.5 -43.5z" />
    <glyph glyph-name="G" unicode="G" horiz-adv-x="900" 
d="M847 441q0 -34 -74 -53q-58 -15 -133 -15l-15 -16q18 -25 37 -50q10 -17 10 -53q0 -97 -160 -163q-126 -52 -226 -52q-148 0 -204 100q-38 68 -38 206q0 81 37.5 176t90.5 146q6 6 114.5 55t114.5 49q21 0 43 -32.5t22 -47.5q0 -59 -70 -92q-105 -49 -130 -74
q-70 -70 -70 -220q0 -9 -1 -27.5t-1 -26.5q0 -38 13 -54q18 -23 68 -23q35 0 133 34q112 39 112 70q0 35 -55 68t-55 58q0 32 29.5 56.5t65.5 24.5q72 16 109 24q111 24 122 24q43 0 77 -29.5t34 -62.5z" />
    <glyph glyph-name="H" unicode="H" horiz-adv-x="700" 
d="M625 164q0 -48 -34 -68q-24 -14 -64 -14q-24 0 -44 12q-26 16 -26 40q0 7 14.5 29.5t14.5 36.5q0 12 -6 28q-15 39 -15 89q-2 0 -20.5 4t-28.5 4q-76 -10 -115 -15q-116 -16 -124 -21q-13 -9 -18.5 -29.5t-5.5 -53.5q0 -42 8 -94q4 -24 9 -48q0 -29 -12.5 -38.5
t-47.5 -9.5q-61 0 -85 71q-18 54 -18 157q0 29 12 150q3 30 26 226q3 36 7 73q9 52 66 52q30 0 51 -41.5t21 -105.5q0 -59 -20 -118v-52q3 -2 7.5 -4t13.5 -2q11 0 131 17.5t121 24t1 14v11.5q0 18 -1.5 50t-1.5 33q0 53 13 80q17 35 61 35q40 0 55 -39q11 -29 11 -91
q0 -20 -0.5 -40t-0.5 -39v-22q2 -14 2 -20q9 -82 33 -205q10 -52 10 -67z" />
    <glyph glyph-name="I" unicode="I" 
d="M686 37q0 -22 -23 -32t-52 -10q-59 12 -130 24t-124.5 17t-111.5 11q-74 16 -74 64q0 33 21.5 45.5t53.5 12.5q19 0 34 -2.5t25 -3.5q16 9 16 59q0 19 -1 55.5t-1 47.5v184q0 40 12 55q22 18 38 36q-3 3 -5 4q-6 4 -21 4q-17 0 -140 -35q-41 -11 -121 -36q-19 0 -39 20
t-20 40q0 47 127 100q106 44 256 44q86 0 133 -9q118 -23 118 -93q0 -18 -19 -30t-46 -12q-15 0 -31 4t-31 13l-120 -7q33 -41 42.5 -59t9.5 -44q-6 -56 -11 -124t-5 -132l7 -92q4 -6 125 -28q108 -19 108 -91z" />
    <glyph glyph-name="J" unicode="J" 
d="M683 734q0 -51 -32 -72q-27 -17 -77 -17q-22 0 -57 2.5t-40 2.5q-8 0 -15.5 -8.5t-7.5 -18.5q1 0 32 -78q38 -96 61 -172q33 -109 33 -168q0 -85 -52 -125q-39 -30 -99 -30q-23 0 -98 10q-109 15 -184 38q-99 31 -99 71q0 16 17 41t34 25q53 -21 118.5 -36t119.5 -15
q67 0 85.5 9.5t18.5 31.5q-1 14 -1 21q0 38 -34 147q-27 85 -47 137q-30 72 -49.5 97.5t-37.5 25.5q-7 0 -18 -4q-24 -9 -34 -9t-15 1.5t-15 7t-24.5 22t-14.5 22.5q0 41 81 77q63 28 152 28q42 0 82 -7q35 -9 71 -17q10 0 19 1q45 5 56 5q33 0 52 -9.5t19 -36.5z" />
    <glyph glyph-name="K" unicode="K" horiz-adv-x="850" 
d="M793 69q0 -27 -12 -33t-46 -6q-30 0 -53.5 11t-31.5 29t-11.5 85t-31.5 111l-104 111q-16 25 -30 41t-23 16q-45 -27 -103 -48.5t-102 -21.5q-27 0 -48 7q-4 -13 -5 -27t-1 -35q0 -18 5 -94q2 -30 2 -55q0 -42 -8.5 -65t-32.5 -23q-52 0 -74 38q-16 28 -16 80q0 15 2 38
t2 29q0 93 -24 224t-24 161q6 16 11 24q17 25 44 25q47 0 65 -39q11 -24 11 -68v-18q0 -10 13.5 -57t18.5 -47q14 0 27 13q18 18 25 21q140 54 219 117q32 25 85 90q30 36 61 36q22 -13 33 -22q33 -28 33 -57q0 -7 -58 -71q-47 -52 -67 -72q112 -114 166 -201
q39 -62 49 -115l8 -60q11 -16 18.5 -34.5t7.5 -37.5z" />
    <glyph glyph-name="L" unicode="L" horiz-adv-x="612" 
d="M583 65q1 -20 1 -27q0 -27 -42 -31q-124 -10 -247 -21q-58 -5 -79 -6.5t-102 -1.5q-33 0 -59.5 27.5t-26.5 58.5v276q0 104 35 268q26 122 59 122q8 0 28 -21q26 -28 26 -64q-17 -131 -30 -240.5t-13 -163.5v-45q0 -45 8.5 -58.5t43.5 -13.5q93 0 159 8l106 18h16
q48 0 74 -12q43 -20 43 -73z" />
    <glyph glyph-name="M" unicode="M" horiz-adv-x="900" 
d="M820 50q0 -12 -18.5 -16t-50.5 -4h-31q-48 0 -74 103t-26 307v39q-31 -109 -56.5 -167t-69.5 -58q-48 0 -104 38q-23 15 -99 81q-62 54 -99 72q0 -76 -10 -139q-4 -25 -16 -86q-17 -87 -23 -176q-2 -32 -20 -32q-46 0 -66.5 38t-20.5 96q0 6 18 163.5t20 160.5
q35 61 45 183q6 78 60 78q17 0 68 -78q47 -74 94 -147q53 -79 72 -79q66 0 99 85q9 22 38 159q18 86 47 86q37 0 98 -93q68 -104 68 -201q0 -16 14 -111t28.5 -193t14.5 -109z" />
    <glyph glyph-name="N" unicode="N" 
d="M655 384q0 -100 -49 -221q-64 -158 -162 -158q-79 0 -148 63q-49 45 -94 125q-23 43 -45 87q-13 -24 -17.5 -48.5t-4.5 -56.5q0 -20 1 -38t2 -35q0 -30 -9 -42q-12 -16 -42 -16q-45 0 -63 43q-14 33 -14 93q0 8 -0.5 16.5t-0.5 20.5q0 48 4.5 102.5t20.5 136.5
q15 120 24 171q16 90 56 90q50 0 86 -83q15 -35 59 -189q38 -135 75 -203q26 -50 45 -72q16 -19 30 -19q43 0 85 95q38 85 38 145q0 74 -24 137q-26 58 -52 117q0 28 23 50t45 22q48 0 93 -106q38 -90 38 -227z" />
    <glyph glyph-name="O" unicode="O" horiz-adv-x="850" 
d="M779 467q0 -189 -134.5 -317.5t-343.5 -128.5q-111 0 -193.5 62.5t-82.5 147.5q0 96 76 212q65 99 161 182q90 78 141 86q3 1 11 1q10 0 36 -5t39 -5q7 0 17 2q40 14 73.5 24t44.5 10q60 0 105 -70q50 -78 50 -201zM699 458q0 77 -28 125.5t-70 48.5q-21 0 -53 -11
q-31 -14 -62 -27q-2 -1 -14 -1q-24 1 -40 1.5t-19 -0.5q-68 -21 -139 -104q-57 -67 -103 -156q-40 -78 -40 -108q0 -48 43.5 -77t103.5 -29q151 0 286 110.5t135 227.5z" />
    <glyph glyph-name="P" unicode="P" horiz-adv-x="800" 
d="M751 476q0 -99 -113 -152q-80 -38 -160 -38q-63 0 -116 18q-63 21 -104 66q12 14 25 39q9 17 21 22q25 -4 41 -5q56 -6 93 -6q75 0 116 14q54 18 54 62q-17 47 -37 70q-61 70 -181 70q-119 0 -143 -41q-27 -46 -27 -270q0 -73 37 -174q18 -49 18 -81q0 -20 -30 -40
t-50 -20q-66 0 -96 114q-23 87 -23 216q0 265 61 345t257 80q170 0 270 -97q87 -84 87 -192z" />
    <glyph glyph-name="Q" unicode="Q" 
d="M696 -116q0 -20 -12 -26t-38 -6t-66 38q-51 49 -122 159q-67 -33 -78 -37q-56 -22 -102 -22q-120 0 -194 76t-74 195q0 124 52 212q37 63 104 114q39 29 78 59q-20 -46 -39 -92q-43 -101 -66 -170q-35 -104 -35 -155q0 -47 29 -85q41 -54 119 -54q17 0 79.5 17t68.5 29
q1 21 5.5 48t23.5 33q13 3 28 -7t22 -10q23 0 63 73q44 81 44 148q0 95 -54 142q-32 28 -126 60q-103 36 -199 46q-45 5 -45 27q0 26 37 40q27 10 53 10q24 0 78 -12q33 -7 82 -24q174 -59 225 -153q29 -53 29 -180q0 -97 -36 -162q-23 -41 -90 -108q46 -75 96 -132
q60 -69 60 -91z" />
    <glyph glyph-name="R" unicode="R" horiz-adv-x="850" 
d="M805 30q0 -21 -8 -26q-16 -9 -82 -9q-52 0 -140 63q-67 48 -88 111q-8 33 -15 62q-15 57 -26 68q-15 17 -100 31t-85 43q0 16 98 69t98 132q0 24 -12.5 31.5t-41.5 7.5q-10 0 -24.5 -0.5t-33.5 -0.5q-90 0 -110 -20q-13 -13 -13 -75v-297q0 -27 25 -76.5t52 -99.5
q0 -15 -22.5 -22.5t-54.5 -7.5q-76 0 -118 62q-36 53 -50 156q-10 74 -10 207q0 73 6 144q2 23 6 57q11 41 71 57q43 11 128 11q24 0 47 -0.5t46 -0.5q151 0 217 -27q77 -31 77 -107q0 -49 -31 -98l-68 -84q37 -33 60 -68q38 -58 69 -142q27 -70 103 -111q30 -16 30 -40z
" />
    <glyph glyph-name="S" unicode="S" horiz-adv-x="650" 
d="M580 200q0 -72 -93 -128q-80 -48 -150 -48q-62 0 -145 29q-95 33 -95 71q0 19 14 46.5t32 27.5q30 0 57 -23q62 -52 80 -52q40 0 102.5 32t62.5 50q0 95 -81 136q-23 11 -170 49q-109 28 -146 81q-11 9 -16 15q-17 20 -17 39q0 75 83 140q64 50 165 86q81 29 117 29
q20 0 37.5 -23.5t17.5 -46.5q0 -16 -60 -37q-96 -33 -126 -47q-80 -37 -114 -86q27 -25 95 -40q183 -42 220 -60q58 -29 98 -122q32 -74 32 -118z" />
    <glyph glyph-name="T" unicode="T" horiz-adv-x="800" 
d="M738 658q0 -19 -12.5 -25.5t-47.5 -6.5q-74 3 -145.5 5.5t-124.5 2.5l-14 -12q20 -31 27 -77t7 -103q0 -19 -0.5 -37t-0.5 -34v-187q0 -37 19.5 -86.5t19.5 -57.5q0 -30 -49 -30q-66 0 -93 96q-20 70 -20 195q0 174 -9.5 242t-36.5 68q-18 0 -80 -24t-79 -24
q-29 0 -51.5 15t-22.5 38q0 38 108 77q131 47 319 47q134 0 210 -20t76 -62z" />
    <glyph glyph-name="U" unicode="U" horiz-adv-x="800" 
d="M701 384q0 -116 -83 -234q-94 -133 -216 -133q-59 0 -136 32q-93 39 -150 102q-72 79 -72 180q0 27 16 130q5 35 17 101v17q0 48 6 73q11 46 40 46q32 0 56 -23t28 -51l-53 -332q28 -75 91.5 -125t121.5 -50q67 0 155 113q83 107 83 166q0 58 -34 122q-39 69 -77 138
q0 14 18 28t30 14q42 0 96 -88q63 -103 63 -226z" />
    <glyph glyph-name="V" unicode="V" horiz-adv-x="800" 
d="M685 643q-16 -29 -31 -58q-37 -65 -79 -130q-53 -81 -101 -136q-6 -6 -83 -86q-52 -53 -62.5 -75.5t-16.5 -81t-48 -58.5q-77 0 -170 301q-50 163 -72 243q-17 61 -17 73q0 18 26 31q8 4 27 10q43 0 72 -90q11 -34 46 -190q28 -126 58 -173q2 0 41 35q46 42 92 91
q60 65 95 121q86 146 107 181q30 50 58 50q23 0 42 -19q16 -16 16 -39z" />
    <glyph glyph-name="W" unicode="W" horiz-adv-x="975" 
d="M930 455q0 -276 -35 -347q-43 -88 -213 -88q-116 0 -181 41q-42 27 -96 102q-33 -52 -66 -103q-37 -40 -75 -40q-96 0 -161 120q-49 91 -77 247q-21 119 -21 202q0 15 19.5 40.5t33.5 25.5q65 0 84 -97q10 -106 20 -211q16 -138 72 -203q44 43 79 127q23 63 46.5 124.5
t47.5 61.5q64 0 83 -86q16 -80 33 -160q34 -87 133 -87q111 0 153 60q31 44 31 144q0 30 -2.5 82.5t-2.5 64.5q0 94 -60 125t-60 55q0 14 24 59.5t36 45.5q13 0 47 -36q43 -45 71 -105q37 -79 37 -164z" />
    <glyph glyph-name="X" unicode="X" 
d="M680 135q0 -29 -10.5 -49.5t-29.5 -20.5q-14 0 -48 41q-44 54 -87 108q-68 79 -148 149q-22 -20 -70 -111q-72 -138 -81 -153q-46 -77 -74 -77q-29 0 -42 16t-13 41q0 12 47 102q28 54 88 164q48 88 48 91q0 11 -59 67q-105 99 -111 105q-60 62 -60 87q0 10 18 30t27 20
q15 0 69 -51q165 -156 171 -161q9 11 70 98q42 60 70 90q36 39 60 39q14 -2 20 -6q20 -14 20 -54q0 -31 -72 -130t-72 -109q0 -22 69 -93l130 -130q70 -74 70 -103z" />
    <glyph glyph-name="Y" unicode="Y" horiz-adv-x="700" 
d="M610 575q0 -96 -72 -148q-81 -29 -161 -58l3 -124q0 -47 30 -94l68 -102q0 -14 -38 -29t-60 -15q-25 0 -60 40t-60 105q-16 41 -22 72t-6 58q0 14 1 23.5t2 18.5q0 13 -10 18q-31 3 -61 6q-68 15 -109 61q-58 64 -58 183q0 24 3 59t3 42q14 3 24 8t15 5q36 0 51 -26
q11 -20 11 -59q0 -22 -2.5 -55.5t-2.5 -34.5q0 -43 53 -64q41 -16 94 -16q88 0 158 27q96 37 96 109q0 66 15 111t15 59q0 12 17 12q15 0 39 -8q4 -1 11 -4q-4 3 -7 5l-2 -12q22 -73 22 -173z" />
    <glyph glyph-name="Z" unicode="Z" horiz-adv-x="800" 
d="M751 105q0 -30 -36.5 -34.5t-223.5 -4.5q-86 0 -156 -16q-60 -18 -120 -35q-26 0 -46.5 15t-20.5 42q0 62 102 190q70 88 196 214l124 124q-31 13 -41.5 15.5t-26.5 2.5h-188q-18 0 -129 -18q-37 -6 -110 -19q-22 0 -45 19q-27 22 -27 51q0 31 14.5 42t40.5 11
q71 13 151 22t136 9q145 0 234 -18q146 -29 146 -104q0 -32 -78 -108q-181 -177 -198 -194q-42 -35 -66 -58q-45 -43 -59 -89l323 25q43 0 73.5 -20.5t30.5 -63.5z" />
    <glyph glyph-name="bracketleft" unicode="[" horiz-adv-x="650" 
d="M611 730q0 -55 -51 -74q-35 -13 -111 -13h-37h-137q-5 -6 -22 -65q-24 -81 -44 -164q-27 -111 -55 -246q163 -7 250.5 -26.5t87.5 -73.5q0 -23 -5 -36q-9 -24 -33 -24q-45 16 -102 29t-102 13h-16q-12 -2 -24.5 -3t-34 -3t-36.5 -2q-53 0 -79 15q-32 18 -32 62
q0 46 31 173q39 152 78 305q15 106 32 137.5t52 31.5q12 0 28 -2q47 -6 66 -6q35 6 86 11.5t99 5.5q45 0 69 -6q42 -11 42 -39z" />
    <glyph glyph-name="backslash" unicode="\" horiz-adv-x="775" 
d="M99 722q28 0 102 -69q48 -45 134 -137q80 -86 98 -100q79 -62 123 -108q92 -96 97 -101q34 -29 50 -44q50 -47 50 -60q0 -25 -26.5 -53t-37.5 -28q-34 0 -73 34q-19 17 -99 102q-90 96 -177 174q-54 49 -102 97q-65 67 -110 113q-15 15 -72 61q-28 22 -28 44q0 16 36 53
q22 22 35 22z" />
    <glyph glyph-name="bracketright" unicode="]" horiz-adv-x="650" 
d="M585 654q0 -10 -21 -142q-31 -192 -39 -248q-21 -140 -21 -170v-14q0 -27 -6 -41t-32 -38h-385q-29 14 -43 23q-27 17 -27 37q0 32 32 43.5t92 11.5q22 0 108 -5q34 -2 61 -2q38 0 58 5.5t23 21.5q13 81 19 102q12 41 24 83q2 14 14 115.5t13 105.5v55q-64 0 -134.5 5
t-168.5 22q-32 4 -64 9q-62 18 -62 67q0 14 24 34t36 20q35 -7 63 -11q105 -18 198 -32q16 -3 178 -10q60 -3 60 -47z" />
    <glyph glyph-name="asciicircum" unicode="^" horiz-adv-x="300" 
d="M267 622q0 -12 -3.5 -19t-11.5 -7q-32 0 -43 22q-3 7 -5 23q-3 9 -19 50q-6 15 -19 47q-4 0 -57 -56t-73 -56q-8 7 -11 11q-11 13 -11 26q0 3 25.5 30.5t52.5 53.5q7 7 55 59q20 22 34 22q24 0 38 -47q7 -26 15 -52q15 -35 24 -63.5t9 -43.5z" />
    <glyph glyph-name="underscore" unicode="_" horiz-adv-x="725" 
d="M701 46q0 -22 -15 -30t-37 -8q-19 1 -25 1q-51 8 -130 13.5t-199 5.5h-154q-55 0 -91 16q-44 20 -44 58q0 24 17 34.5t45 10.5q31 0 48 -7.5t32 -7.5h265l246 -20q15 -5 28.5 -25.5t13.5 -40.5z" />
    <glyph glyph-name="grave" unicode="`" horiz-adv-x="225" 
d="M162 654q0 -5 2 -19t2 -22q0 -15 -5.5 -23t-22.5 -8l-60 28l-68 161q0 13 25 29t43 16q45 0 69 -81q7 -27 15 -81z" />
    <glyph glyph-name="a" unicode="a" horiz-adv-x="600" 
d="M505 -24q0 -36 -35 -36q-38 0 -88 59l-76 94q-30 -28 -73 -54q-58 -35 -95 -35q-40 0 -70 28q-37 35 -37 99q0 80 74 157q70 73 131 73q51 0 89 -60q20 -32 52 -116q21 -59 60 -103q68 -77 68 -106zM253 244q0 7 -7 7q-17 0 -51 -31q-40 -37 -69 -87v-17h17q52 26 81 60
t29 68z" />
    <glyph glyph-name="b" unicode="b" horiz-adv-x="500" 
d="M425 170q0 -68 -65 -119q-58 -45 -115 -45q-59 0 -82 15.5t-46 31.5q-72 30 -85 64q-20 51 -20 255v134q7 44 19 66t30 22q22 0 36 -16t14 -37q4 -45 5.5 -82t1.5 -86v-14q0 -19 -0.5 -33t-0.5 -23l12 -12q10 9 72.5 29t83.5 20q47 0 87 -36q53 -47 53 -134zM330 180
q0 20 -23 40t-37 20q-37 0 -65 -30q-32 -34 -40 -75q39 -23 66 -33q19 -7 34 -7q12 0 38.5 34.5t26.5 50.5z" />
    <glyph glyph-name="c" unicode="c" horiz-adv-x="500" 
d="M449 76q0 -31 -40 -45q-33 -11 -89 -11q-104 0 -192.5 54t-88.5 122q0 124 111 196q46 30 74 30q23 -6 34 -10q34 -14 34 -30q0 -29 -78.5 -73.5t-78.5 -107.5q0 -40 44 -58q35 -14 92 -14q34 0 56 2.5t40 6.5q46 0 64 -14t18 -48z" />
    <glyph glyph-name="d" unicode="d" horiz-adv-x="650" 
d="M588 105q0 -14 -7 -31.5t-19 -17.5q-41 0 -84 44q-38 47 -43 52q-42 -73 -94 -101.5t-144 -28.5q-62 0 -105 33q-48 37 -48 100q0 78 75 133q62 46 114 46q45 0 66 -19q16 -14 16 -36q0 -26 -87.5 -60t-87.5 -72q0 -9 11.5 -16.5t27.5 -7.5q99 0 144 47q38 40 38 110
q-22 74 -39 141.5t-17 107.5q0 18 10.5 33t28.5 15q60 0 76 -105q12 -81 27 -122q43 -120 115 -196q26 -27 26 -49z" />
    <glyph glyph-name="e" unicode="e" horiz-adv-x="600" 
d="M510 80q0 -37 -71 -58q-60 -18 -135 -18q-89 0 -134 39q-40 35 -40 95q0 10 1.5 22t5.5 27q-40 18 -79 36q-36 19 -36 46q0 23 12 30.5t31 7.5q8 0 47 -17t54 -17q38 49 83 85q49 40 99 40q24 0 56 -39q24 -30 24 -67q0 -97 -107.5 -110t-107.5 -49q0 -25 23 -35
q16 -7 45 -7h19q50 0 90 9q37 10 75 20q25 0 35 -12t10 -28zM366 305q-46 -21 -66 -31l-36 -28q26 3 66 31q13 9 36 28z" />
    <glyph glyph-name="f" unicode="f" horiz-adv-x="450" 
d="M303 236q0 -20 -10 -27.5t-32 -7.5q-6 0 -54 4.5t-74 4.5q-10 -57 -11 -106t-12 -85q-5 -19 -24 -19q-10 0 -22.5 7t-18.5 15q-24 33 -35 74t-11 80q0 24 3.5 47t7.5 46q10 75 48.5 149.5t84.5 110.5q9 7 40 12t68 5q57 0 93 -11.5t36 -39.5q0 -18 -14 -22.5t-45 -4.5
q-43 0 -69 -3.5t-49.5 -19.5t-41.5 -51q-8 -15 -30 -72q16 -10 109 -27q63 -11 63 -59z" />
    <glyph glyph-name="g" unicode="g" horiz-adv-x="600" 
d="M511 -54q0 -114 -67 -157q-45 -29 -135 -29q-34 0 -60.5 15.5t-26.5 40.5q0 34 24 47q17 9 49 9q18 -1 25 -1q48 0 67.5 21.5t19.5 67.5q0 32 -16 95q-20 81 -45 81q-38 -15 -90 -27.5t-103 -12.5q-64 0 -93 20q-34 23 -34 80q0 50 42 99q56 66 154 66q39 0 66 -10.5
t27 -37.5q0 -31 -77.5 -44.5t-101.5 -69.5h64q21 10 49.5 16.5t36.5 12.5q15 11 32 46q12 24 39 24q60 0 112 -155q42 -126 42 -197z" />
    <glyph glyph-name="h" unicode="h" horiz-adv-x="575" 
d="M523 -57q0 -28 -20 -36q-6 -2 -21 -2q-74 0 -116 132.5t-95 132.5q-18 0 -43.5 -86.5t-45.5 -86.5q-53 0 -102 112q-59 134 -59 345l22 40q82 0 90 -147q5 -99 20 -136q14 23 29 47q19 23 55 23q87 0 144 -58q42 -43 67 -113q11 -39 23 -78q2 -6 29 -35q23 -25 23 -54z
" />
    <glyph glyph-name="i" unicode="i" horiz-adv-x="300" 
d="M172 503q0 -18 -13 -32t-28 -14q-33 0 -56 32q-18 26 -18 47q0 4 16 25q5 7 17 21q45 0 66 -25q16 -19 16 -54zM196 55q0 -31 -8 -44.5t-34 -13.5q-58 0 -83 105q-19 79 -19 216q0 15 18.5 37.5t32.5 22.5q53 0 65 -86l8 -136z" />
    <glyph glyph-name="j" unicode="j" horiz-adv-x="400" 
d="M252 386q0 -18 -14 -43q-18 -33 -44 -33q-20 0 -41.5 22.5t-21.5 46.5q0 36 21.5 66t42.5 30q19 0 38 -34t19 -55zM302 -14q0 -56 -36 -90t-91 -34q-46 0 -103 28q-72 35 -72 87q0 11 19 31t34 20q14 0 22 -11q19 -25 82 -25q24 0 30 7q3 3 3 16q0 37 -43 142
q-14 35 -43 98q0 32 27 44q39 10 62 16q45 -94 75 -181q34 -97 34 -148z" />
    <glyph glyph-name="k" unicode="k" horiz-adv-x="500" 
d="M484 386q0 -50 -30 -82l-66 -48q16 -54 24 -87q24 -100 24 -161q0 -34 -7 -53q-10 -27 -34 -27q-40 0 -56 32q-11 22 -11 59v22q-15 83 -29 167q-9 38 -28 38q-30 0 -52 -26q-49 -58 -90 -58q0 -23 4.5 -63.5t4.5 -50.5q0 -25 -7 -37t-26 -12q-43 0 -65 43
q-25 50 -25 190l6 207q4 26 16.5 34t31.5 8q47 0 58 -75l8 -100q52 35 134 50q111 21 119 107h27h15q11 3 19 6q21 -27 26 -36q9 -14 9 -47z" />
    <glyph glyph-name="l" unicode="l" horiz-adv-x="300" 
d="M179 448l-31 -252q0 -14 7 -36q18 -57 18 -94q0 -34 -1 -39q-5 -27 -40 -27q-31 0 -61 42q-36 51 -36 128q9 44 17 140t8 214q6 12 11.5 21.5t19.5 35.5q42 -21 56 -32q32 -27 32 -101z" />
    <glyph glyph-name="m" unicode="m" horiz-adv-x="723" 
d="M662 91q0 -23 -14 -36t-33 -13q-53 0 -97 68l-70 120q-30 -34 -59 -68q-39 -39 -74 -39q-37 0 -70 31q-27 28 -43 45q-25 -33 -55 -117q-21 -59 -45 -59q-40 0 -58.5 36t-18.5 86v206q0 21 11 37t24 16q20 0 30 -8q10 -12 20 -23q8 -2 13 -2q14 0 28 3.5t32 10.5
q20 0 57 -60q52 -84 55 -88q41 28 83 93q31 48 72 48q27 0 48 -29q1 -1 59 -121q32 -69 75 -90q30 -15 30 -47z" />
    <glyph glyph-name="n" unicode="n" horiz-adv-x="600" 
d="M481 100q0 -24 -13.5 -47t-31.5 -23q-91 0 -119 122.5t-57 122.5q-46 0 -72 -134t-73 -134q-65 0 -90 81q-16 52 -16 134v24q0 98 9.5 127.5t37.5 29.5q7 0 34 -4t48 -4q18 8 29 11q33 11 52 11q45 -4 70 -8q76 -14 103 -43z" />
    <glyph glyph-name="o" unicode="o" horiz-adv-x="650" 
d="M588 248q-7 -31 -13 -62q-24 -74 -75 -117q-74 -63 -195 -63q-118 0 -193 29q-102 40 -102 126q0 43 58.5 98.5t108.5 55.5q4 0 18 -7t23 -7q6 0 12 3q12 10 22 16q60 35 152 35q65 0 117 -23q67 -29 67 -84zM482 242q-30 0 -50 3t-23 3q-46 0 -85 -10l-72 -24
q-2 0 -11.5 6.5t-19.5 6.5q-17 0 -40.5 -14.5t-63.5 -54.5q35 -21 102 -37q55 -13 80 -13q38 0 91 28q75 39 92 106z" />
    <glyph glyph-name="p" unicode="p" horiz-adv-x="550" 
d="M482 169q0 -99 -41 -131q-49 -38 -208 -38q-14 0 -34 19q-23 22 -23 43q0 8 13 24q33 40 77 40q37 0 69.5 16.5t32.5 39.5q0 41 -23 55q-15 9 -49 9h-14q-76 0 -104 -16q-35 -20 -35 -77q0 -60 19.5 -151.5t19.5 -115.5q0 -34 -4 -48q-7 -24 -28 -24q-58 0 -91 110
q-36 119 -36 301q2 15 3.5 30t3.5 17q11 14 83 49q92 45 157 45q122 0 172 -57q40 -46 40 -140z" />
    <glyph glyph-name="q" unicode="q" horiz-adv-x="675" 
d="M620 -160q0 -44 -81 -44q-13 0 -32.5 1.5t-31.5 2.5q-117 11 -153 72q-29 49 -29 193l-20 8q-20 -11 -52.5 -19t-68.5 -8q-40 0 -74 21q-50 31 -50 96q0 64 105 145q112 87 221 87q39 0 73 -28t34 -61q0 -34 -29 -91q-9 -18 -29 -50q-1 -7 -1 -12q-3 -40 -3 -65
q0 -79 15 -126q21 -67 71 -67q12 0 56 26q24 14 59 14q16 0 22.5 -11.5t6.5 -30.5q0 -17 -2.5 -29.5t-6.5 -23.5zM306 284q-79 -35 -89 -41q-43 -26 -65 -76h25q42 27 85.5 68t43.5 49z" />
    <glyph glyph-name="r" unicode="r" horiz-adv-x="540" 
d="M497 267q0 -10 -20.5 -18t-47.5 -8q-18 0 -46 13.5t-57 28.5q-55 0 -80 -39q-20 -32 -20 -90q0 -34 6.5 -73.5t13.5 -79.5q0 -16 -22.5 -24t-36.5 -8q-41 0 -64 57q-10 24 -39 144t-63 198v18q18 6 27 8q31 9 33 9q23 0 52.5 -31.5t40.5 -31.5q2 0 84 35q40 17 78 17
q41 0 101 -45t60 -80z" />
    <glyph glyph-name="s" unicode="s" horiz-adv-x="500" 
d="M441 90q0 -50 -49 -68q-31 -11 -102 -11q-57 0 -111 21.5t-54 43.5q0 29 12 37t45 8q25 0 55 -23q14 -11 23 -11q17 0 42.5 9t25.5 25q0 48 -80 72l-148 36q-81 27 -81 81q0 40 67.5 80t137.5 40q27 0 47.5 -17.5t20.5 -37.5q0 -25 -44 -29.5t-98 -45.5q19 -9 50 -14
t63 -10q83 -25 130.5 -76.5t47.5 -109.5z" />
    <glyph glyph-name="t" unicode="t" horiz-adv-x="550" 
d="M462 266q0 -18 -11.5 -24t-37.5 -6q-9 0 -42 2t-56 2q0 -19 16 -118q9 -56 9 -95v-14q0 -18 -5 -24q-8 -10 -33 -10q-74 0 -86 117q-5 49 -9 99q-6 29 -23 39.5t-47 10.5q-14 0 -29 -1t-29 -2q-30 0 -45 11q-19 14 -19 51q0 38 48 50q29 7 112 7q0 3 3 8t3 8q0 37 -13 97
q-4 20 -13 53q0 22 22 36.5t32 14.5q63 0 79 -88l8 -110q5 -22 85.5 -39.5t80.5 -74.5z" />
    <glyph glyph-name="u" unicode="u" horiz-adv-x="650" 
d="M611 47q0 -18 -10 -28t-26 -10q-41 0 -74 30q-6 6 -63 71q-4 -5 -32 -52q-33 -56 -102 -56q-129 0 -200 55q-59 46 -82 136q-17 67 -17 172q0 29 18.5 43t44.5 14q38 0 55 -51q12 -37 12 -90q0 -13 -0.5 -21.5t-1.5 -14.5q0 -62 35 -95t92 -33q53 0 58 114.5t63 114.5
q23 0 49 -28q3 -4 78 -112q57 -75 75 -99q28 -38 28 -60z" />
    <glyph glyph-name="v" unicode="v" horiz-adv-x="650" 
d="M563 312q0 -21 -24 -51q-68 -69 -113 -117l-72 -84q-49 -51 -87 -51q-26 0 -60 33q-39 38 -100 128q-24 40 -47 80q-46 81 -46 97q0 22 36 32q22 6 42 6q40 0 73 -70q51 -108 83 -146q74 43 124 111q82 111 113 111q29 0 53.5 -28t24.5 -51z" />
    <glyph glyph-name="w" unicode="w" horiz-adv-x="650" 
d="M598 210q0 -119 -30 -164t-107 -45q-72 0 -114 29q-24 16 -77 80q-7 -6 -39 -45q-42 -51 -92 -51q-56 0 -94 49.5t-38 133.5q0 73 19.5 138.5t52.5 65.5q24 0 43 -36t19 -58q0 -16 -18.5 -58.5t-18.5 -73.5q0 -18 4 -28q5 -8 7 -11q56 18 96 146q17 55 46 55
q36 0 69 -110t100 -110q38 0 57 40q16 34 16 92q0 43 -9 81q19 11 28 16q16 9 21 9q37 0 51 -59q8 -34 8 -86z" />
    <glyph glyph-name="x" unicode="x" horiz-adv-x="650" 
d="M605 79q0 -20 -23 -33.5t-48 -13.5q-28 0 -105 30q-26 10 -73 31q-10 0 -45.5 -47.5t-46.5 -47.5q-20 0 -49 16q-34 19 -34 42q0 29 13 59q17 38 54 78q-36 42 -112 64q-124 36 -124 92q0 35 10 41l44 20l246 -108q15 12 52 75q27 46 63 46q41 0 58 -26q13 -20 13 -52
q0 -24 -21 -63q-24 -43 -48 -85q0 -19 16.5 -25t41.5 -6h11.5t5.5 1q39 0 70 -25.5t31 -62.5z" />
    <glyph glyph-name="y" unicode="y" horiz-adv-x="500" 
d="M423 271q0 -33 -15 -68q-44 -101 -45 -107q-8 -51 -16 -101q-9 -35 -29 -61q-24 -33 -80 -82q-79 -69 -125 -69q-19 0 -43.5 18t-24.5 39q0 29 101 91q64 39 103 98v37q-115 0 -173 25q-74 32 -74 110q0 65 20 115.5t52 50.5q34 0 55 -25q18 -22 18 -51q0 -9 -15.5 -42
t-15.5 -54q0 -9 19 -18t33 -9q40 0 81 32q54 42 54 109q0 2 1 4q5 8 5 35q27 6 39 12.5t21 6.5q18 0 34 -24q20 -29 20 -72z" />
    <glyph glyph-name="z" unicode="z" horiz-adv-x="600" 
d="M530 100q0 -31 -19.5 -47.5t-42.5 -16.5q-158 0 -222 10q-104 16 -132 68q-5 9 -5 21q0 19 52 91q25 34 25 57q0 8 -1 12q-25 0 -46 -0.5t-37 -0.5t-44 27t-28 51q0 47 52 63q39 12 141 12q25 0 51.5 -0.5t54.5 -0.5q76 0 107.5 -19.5t31.5 -67.5q0 -42 -57 -90
q-19 -16 -116 -81q19 -25 43 -35t51 -10q22 0 57.5 7.5t43.5 7.5q20 0 30 -12.5t10 -45.5z" />
    <glyph glyph-name="braceleft" unicode="{" horiz-adv-x="450" 
d="M361 731q0 -22 -27 -28.5t-53 -12.5q-37 -15 -81 -50q-50 -40 -50 -63q0 -14 78 -60q38 -23 38 -55q0 -33 -10 -49q-6 -10 -24 -15q6 -9 9 -15q9 -21 9 -47q0 -13 -74.5 -56.5t-74.5 -110.5q0 -48 35 -68q23 -13 80 -21q20 -2 40 -3q21 -6 21 -38q0 -26 -11 -32
q-6 -3 -35 -3q-23 0 -41 6q-24 10 -47 20q-4 1 -17 0t-18 0q-30 9 -52 40q-28 40 -28 101q0 49 25 90q19 31 75 88q-29 20 -83 33q-33 8 -33 34q0 47 8.5 64t27.5 17q8 0 21 -3q30 -7 40 -7t19 3q-27 27 -36 41q-15 23 -15 50q0 42 67 111q82 85 184 85q11 0 22 -14.5
t11 -31.5z" />
    <glyph glyph-name="bar" unicode="|" horiz-adv-x="250" 
d="M199 638q0 -28 -1 -34q-9 -47 -17 -93q0 -27 -2 -46q-5 -38 -26 -38q-19 0 -32 16t-13 37q0 26 8 73q10 49 11 56t1 17q0 14 -4 23.5t-6 16.5q0 10 14.5 22.5t27.5 12.5q24 0 31.5 -16.5t7.5 -46.5zM137 279q0 -7 -14 -63q-8 -34 -15 -65q-11 -69 -16 -93t-28 -24
q-12 0 -28 21q-12 16 -12 34q0 10 8 47q17 76 25 120q4 28 9 57q5 16 32 16q20 0 29.5 -13.5t9.5 -36.5z" />
    <glyph glyph-name="braceright" unicode="}" horiz-adv-x="550" 
d="M521 340q0 -31 -12.5 -44.5t-30.5 -13.5q-63 6 -95 8q-105 9 -109 9q-9 -3 -16 -5q18 -27 36 -53q13 -28 13 -60q0 -46 -43 -89q-55 -55 -159 -73q-7 -1 -20 -8.5t-29 -7.5q-17 0 -28.5 10.5t-11.5 26.5q0 41 60 50q80 12 122 63q11 13 16 21q16 24 16 37q0 5 -43 55
q-21 25 -21 45q0 14 8 27q19 31 19 39t-7 14q-17 15 -17 22q0 21 105.5 85.5t105.5 79.5q0 20 -35 65q-46 58 -106 70q-14 2 -24 2q-8 0 -28 -1t-31 -1q-36 0 -52 8q-23 12 -23 41q0 15 17.5 23t49.5 8q123 0 211 -61q97 -68 97 -180q0 -36 -60 -76q-50 -33 -73 -53
q14 -9 37.5 -13.5t46.5 -4.5q21 0 32 1t19 2q38 0 52 -19q11 -15 11 -49z" />
    <glyph glyph-name="asciitilde" unicode="~" horiz-adv-x="650" 
d="M555 712q0 -18 -42 -48q-49 -35 -104 -35q-11 0 -27 6q-2 1 -7 3q-37 10 -59 33l-32 46q-17 11 -37 16.5t-38 5.5q-48 0 -94 -31t-56 -31q-7 0 -15 7t-8 12q0 8 17 21q21 16 64 37q16 8 46 13.5t46 5.5q30 0 63.5 -12t46.5 -26q16 -25 33 -50q23 -20 55 -20q27 0 43 9
t29 18q26 13 39 32q9 13 22 13q5 0 10 -7.5t5 -17.5z" />
    <glyph glyph-name="paragraph" unicode="&#xb6;" horiz-adv-x="500" 
d="M418 18h-56v712h56v-712zM344 18h-56v438q-51 -57 -110 -57q-19 0 -30 2q-53 5 -88 51.5t-35 110.5q0 11 1 17q6 64 45.5 105.5t91.5 41.5q9 -1 13 -1q57 -7 62 -8q26 -7 50 -34v46h56v-712zM246 580q-14 60 -68 60q-13 0 -24 -4q-53 -17 -53 -68q0 -10 3 -24
q16 -63 69 -63q10 0 21 3q55 19 55 73q0 11 -3 23z" />
  </font>
</defs>
</svg>
